<?xml version="1.0" encoding="UTF-8"?>
<svg version="1.1" xmlns="http://www.w3.org/2000/svg" width="1536" height="1024">
<path d="M0 0 C506.88 0 1013.76 0 1536 0 C1536 337.92 1536 675.84 1536 1024 C1029.12 1024 522.24 1024 0 1024 C0 686.08 0 348.16 0 0 Z " fill="#FEFEFE" transform="translate(0,0)"/>
<path d="M0 0 C1.93476518 0.97115787 3.76561262 1.96934347 5.58764648 3.14111328 C6.68375244 3.83998657 6.68375244 3.83998657 7.80200195 4.55297852 C8.98366943 5.31783569 8.98366943 5.31783569 10.18920898 6.09814453 C11.02210449 6.63060791 11.855 7.16307129 12.71313477 7.71166992 C14.49825406 8.85323897 16.28190054 9.99711378 18.06420898 11.14306641 C22.5979663 14.05716468 27.14338348 16.95292032 31.68920898 19.84814453 C32.60653809 20.43273437 33.52386719 21.01732422 34.46899414 21.61962891 C52.01485193 32.78266284 69.7711608 43.61459096 87.55639648 54.39111328 C89.05130615 55.2980896 89.05130615 55.2980896 90.57641602 56.22338867 C92.49046654 57.38436245 94.4054234 58.5438441 96.3215332 59.70141602 C98.11031222 60.78669403 99.88697574 61.8922527 101.64949036 63.01968384 C104.81334228 64.99070738 104.81334228 64.99070738 108.37068176 66.52354431 C112.9269316 68.71282184 117.60112293 71.02134261 119.64523697 75.88996887 C121.03141996 81.80940542 120.85278425 87.86318591 120.77905273 93.90673828 C120.7961282 95.86535597 120.81690683 97.82394452 120.84120178 99.78248596 C120.87528691 103.87822036 120.85754965 107.96968909 120.80419922 112.06518555 C120.74121373 117.29593183 120.81823807 122.51374357 120.93581295 127.74316311 C121.00921508 131.78569008 121.00228205 135.82515691 120.97226143 139.86812019 C120.96848762 141.79420503 120.99047304 143.72053058 121.03953362 145.64599419 C121.3515865 160.21705577 121.3515865 160.21705577 117.15867996 164.66809464 C113.09203197 167.80282918 108.65753214 169.94148142 103.95311165 171.94713497 C100.65219661 173.4340952 97.68865077 175.32564463 94.62670898 177.25439453 C93.50522461 177.93800049 92.38374023 178.62160645 91.22827148 179.32592773 C90.67042969 179.66661285 90.11258789 180.00729797 89.5378418 180.35830688 C80.67129799 185.77163957 71.78522452 191.14656215 62.81738281 196.39086914 C51.6638383 202.91552109 40.60637514 209.60198239 29.56420898 216.31298828 C28.9391597 216.69282364 28.31411041 217.072659 27.67012024 217.46400452 C24.56894814 219.34894562 21.4686385 221.23528494 18.36962891 223.1237793 C16.14285678 224.48055438 13.91230716 225.83026858 11.67895508 227.17626953 C9.96859935 228.21175335 8.26549244 229.25959902 6.57836914 230.33251953 C2.33456381 232.96559503 2.33456381 232.96559503 0.03173828 232.72241211 C-3.05518318 231.59238746 -5.74971862 230.01079912 -8.59204102 228.35986328 C-9.20728638 228.00333176 -9.82253174 227.64680023 -10.4564209 227.27946472 C-18.14931031 222.80178435 -25.75557837 218.17658833 -33.30786133 213.46606445 C-39.05964334 209.89779745 -44.74118747 206.55522016 -50.88891602 203.69189453 C-64.55144656 197.14823329 -64.55144656 197.14823329 -67.44311523 191.41992188 C-69.47516145 184.71357344 -69.34765817 178.23191345 -66.18579102 171.91064453 C-61.36250786 166.46698242 -54.63538196 163.55135878 -48.19213867 160.43359375 C-43.31797236 157.96444892 -38.81351809 154.96463787 -34.24829102 151.97314453 C-32.41378583 150.79902859 -30.57783897 149.62716225 -28.74047852 148.45751953 C-27.8275 147.87421875 -26.91452148 147.29091797 -25.97387695 146.68994141 C-23.15357832 144.89008708 -20.33035829 143.09490885 -17.50610352 141.30126953 C-16.1046106 140.41097046 -16.1046106 140.41097046 -14.67480469 139.50268555 C-12.8261797 138.32842607 -10.97738764 137.15442956 -9.12841797 135.98071289 C-4.76741519 133.20775477 -0.41899983 130.41824822 3.90405273 127.58642578 C4.69320068 127.07039795 5.48234863 126.55437012 6.29541016 126.02270508 C7.7709158 125.05560028 9.2438853 124.08461117 10.71386719 123.10913086 C15.59397549 119.91064453 15.59397549 119.91064453 17.81420898 119.91064453 C14.7136611 116.64960184 11.24617927 114.45361553 7.43920898 112.09814453 C6.44920898 111.44942383 6.44920898 111.44942383 5.43920898 110.78759766 C4.79209961 110.38863281 4.14499023 109.98966797 3.47827148 109.57861328 C2.89513184 109.21018311 2.31199219 108.84175293 1.71118164 108.4621582 C-1.11760753 107.63973417 -2.60231701 108.6176626 -5.18579102 109.91064453 C-6.60839182 110.74305601 -8.00717381 111.61732718 -9.38110352 112.52783203 C-10.16904297 113.04587402 -10.95698242 113.56391602 -11.76879883 114.09765625 C-12.60765625 114.65469238 -13.44651367 115.21172852 -14.31079102 115.78564453 C-16.12003654 116.97413509 -17.92994771 118.16161288 -19.74047852 119.34814453 C-20.65410156 119.94755859 -21.56772461 120.54697266 -22.5090332 121.16455078 C-26.46106081 123.74252428 -30.44354424 126.27053334 -34.43579102 128.78564453 C-35.19947998 129.26678711 -35.96316895 129.74792969 -36.75 130.24365234 C-45.16907166 135.53875297 -53.6044687 140.80790115 -62.04125977 146.07470703 C-63.47091064 147.01032471 -63.47091064 147.01032471 -64.92944336 147.96484375 C-67.44261787 149.46656821 -69.74789341 150.62002537 -72.41479492 151.76660156 C-80.31329714 155.39393067 -80.31329714 155.39393067 -85.08798218 162.30999756 C-86.53643856 169.32481503 -86.32206101 176.40958903 -86.18579102 183.53564453 C-86.20199223 185.70628352 -86.22536293 187.87688151 -86.25610352 190.04736328 C-86.3155181 195.33747876 -86.28577382 200.621266 -86.18579102 205.91064453 C-85.45166992 206.18827637 -84.71754883 206.4659082 -83.96118164 206.75195312 C-81.40022133 207.82112252 -79.14952873 209.0148272 -76.77954102 210.44970703 C-75.95196289 210.94857422 -75.12438477 211.44744141 -74.27172852 211.96142578 C-73.41836914 212.48091797 -72.56500977 213.00041016 -71.68579102 213.53564453 C-70.86336914 214.03193359 -70.04094727 214.52822266 -69.19360352 215.03955078 C-63.29386618 218.60662274 -57.42519138 222.22376082 -51.55541992 225.83984375 C-42.87822021 231.17240482 -34.16302166 236.44297493 -25.45114136 241.71862793 C-21.65124511 244.02023439 -17.85676894 246.33053307 -14.06469727 248.64501953 C-12.27187151 249.7337967 -10.47891239 250.8223543 -8.68579102 251.91064453 C-7.4684729 252.65749512 -7.4684729 252.65749512 -6.2265625 253.41943359 C-5.48092041 253.8702832 -4.73527832 254.32113281 -3.96704102 254.78564453 C-3.32831055 255.17494141 -2.68958008 255.56423828 -2.03149414 255.96533203 C-0.04771327 256.98136372 1.60416152 257.60225285 3.81420898 257.91064453 C6.69943869 256.34819153 6.69943869 256.34819153 9.68920898 254.03564453 C10.86488196 253.18603324 12.04201046 252.33843306 13.22045898 251.49267578 C13.82116211 251.05777832 14.42186523 250.62288086 15.04077148 250.17480469 C27.43271634 241.34144972 40.80022587 233.77191934 53.81420898 225.91064453 C54.91611572 225.24452148 54.91611572 225.24452148 56.0402832 224.56494141 C66.63392308 218.16662221 77.30535395 211.9016366 87.98022461 205.64013672 C90.13356505 204.37672695 92.28649102 203.11261462 94.43920898 201.84814453 C95.48117432 201.23652466 95.48117432 201.23652466 96.54418945 200.61254883 C100.10127556 198.52075619 103.64827666 196.41379334 107.18139648 194.28173828 C107.87668457 193.862229 108.57197266 193.44271973 109.28833008 193.01049805 C110.61284032 192.2096945 111.93613694 191.40687931 113.25805664 190.60180664 C117.7056012 187.91064453 117.7056012 187.91064453 118.81420898 187.91064453 C118.88784597 189.26607434 118.96055446 190.62155458 119.03295898 191.97705078 C119.07952637 192.84797363 119.12609375 193.71889648 119.17407227 194.61621094 C119.26810772 196.53328911 119.34965708 198.45101742 119.41918945 200.36914062 C119.57738752 204.71776495 119.76278455 208.96232154 120.47827148 213.25830078 C120.97634417 217.33996425 121.11972676 219.99873719 119.81420898 223.91064453 C115.81728157 228.25494888 110.36481602 230.86760072 105.21313477 233.60009766 C101.44144455 235.66059359 97.89424761 238.03776496 94.31420898 240.41064453 C92.89603139 241.33030134 91.47675648 242.24826818 90.05639648 243.16455078 C87.2472608 244.98203705 84.44013111 246.8025641 81.63452148 248.62548828 C75.73345045 252.45640612 69.82982895 256.28033793 63.87280273 260.02392578 C63.03990723 260.54736572 62.20701172 261.07080566 61.34887695 261.61010742 C59.76221142 262.60525978 58.17411586 263.59813782 56.58422852 264.58813477 C52.6533448 267.05170041 48.80785554 269.59319322 45.02124023 272.27392578 C39.28314691 276.32701905 33.37174278 280.08773038 27.43920898 283.84814453 C25.32648141 285.18941431 23.21450027 286.53186058 21.10327148 287.87548828 C20.06847656 288.5301709 19.03368164 289.18485352 17.9675293 289.859375 C15.78115128 291.28163794 13.64943342 292.71970876 11.52807617 294.23144531 C10.47523438 294.97249512 9.42239258 295.71354492 8.33764648 296.47705078 C7.3958252 297.15840088 6.45400391 297.83975098 5.48364258 298.54174805 C2.81420898 299.91064453 2.81420898 299.91064453 0.19458008 299.75756836 C-2.05467802 298.95729386 -3.81519503 298.11472601 -5.79516602 296.79345703 C-6.45790527 296.35743164 -7.12064453 295.92140625 -7.8034668 295.47216797 C-8.85896729 294.76108887 -8.85896729 294.76108887 -9.93579102 294.03564453 C-11.46950422 293.02241029 -13.00336222 292.00939521 -14.53735352 290.99658203 C-15.31498047 290.4793457 -16.09260742 289.96210937 -16.89379883 289.42919922 C-20.34612029 287.14187077 -23.82880755 284.90244084 -27.31079102 282.66064453 C-32.01765232 279.62381856 -36.71111064 276.56831897 -41.38500977 273.48095703 C-63.22544753 259.08213171 -85.63392475 245.67464975 -108.29174805 232.60717773 C-109.24678223 232.04732178 -110.20181641 231.48746582 -111.18579102 230.91064453 C-112.42441643 230.48045013 -112.42441643 230.48045013 -113.68806458 230.04156494 C-116.91862313 228.67871613 -118.83016506 227.53195106 -121.18579102 224.91064453 C-122.7833742 218.72008566 -122.66838903 212.59265125 -122.61938477 206.23095703 C-122.63375138 204.37537583 -122.65064119 202.51981261 -122.66993713 200.66427612 C-122.69818674 196.77832875 -122.68883053 192.89466729 -122.65429688 189.00878906 C-122.61414594 184.04084742 -122.67797592 179.08053887 -122.77162075 174.11354256 C-122.83044368 170.28163931 -122.82826995 166.45155179 -122.8085804 162.61931992 C-122.80745747 160.7892974 -122.82630829 158.95914472 -122.86593437 157.12955093 C-123.0799784 145.56297712 -123.0799784 145.56297712 -121.18579102 140.91064453 C-117.25230309 136.94404619 -113.33419507 135.09561365 -108.18579102 132.91064453 C-106.30217267 131.81158146 -104.43260527 130.68749197 -102.58813477 129.52392578 C-101.69562012 128.98517822 -100.80310547 128.44643066 -99.88354492 127.89135742 C-91.60044573 122.88530605 -83.39327427 117.79739823 -75.31079102 112.47314453 C-66.81727211 106.88214872 -58.14307458 101.63420876 -49.40649414 96.43310547 C-42.98969609 92.60793473 -36.61946903 88.72415711 -30.31079102 84.72314453 C-29.56104004 84.2490918 -28.81128906 83.77503906 -28.03881836 83.28662109 C-23.98092092 80.71254889 -19.94874937 78.10298722 -15.93188477 75.46533203 C-15.0648291 74.90225342 -14.19777344 74.3391748 -13.30444336 73.7590332 C-11.63768297 72.67603694 -9.97746296 71.58288721 -8.32495117 70.47827148 C-7.20612549 69.75450317 -7.20612549 69.75450317 -6.06469727 69.01611328 C-5.41057861 68.58451904 -4.75645996 68.1529248 -4.08251953 67.70825195 C-1.62736743 66.67581768 -0.64800717 66.95802609 1.81420898 67.91064453 C3.27745064 68.67475326 4.71246626 69.49421087 6.12280273 70.35205078 C6.94611084 70.84954834 7.76941895 71.3470459 8.61767578 71.85961914 C9.48690674 72.39208252 10.3561377 72.9245459 11.25170898 73.47314453 C12.14607666 74.01527588 13.04044434 74.55740723 13.96191406 75.1159668 C20.00355763 78.78381613 26.01513834 82.49986632 32.02514648 86.21923828 C35.89289154 88.56480356 39.83026125 90.7694013 43.81420898 92.91064453 C43.81420898 93.57064453 43.81420898 94.23064453 43.81420898 94.91064453 C44.65338867 95.14654297 45.49256836 95.38244141 46.35717773 95.62548828 C50.3577035 97.11268938 53.59111734 99.1198012 57.12670898 101.47314453 C57.75899414 101.885 58.3912793 102.29685547 59.04272461 102.72119141 C63.62668472 105.72312027 63.62668472 105.72312027 64.81420898 106.91064453 C65.03830217 110.91136706 64.89066317 114.90635642 64.81420898 118.91064453 C64.85545898 119.82587891 64.89670898 120.74111328 64.93920898 121.68408203 C64.93920898 125.41797169 64.75374991 127.89815102 62.15405273 130.69970703 C59.46916674 132.6431408 56.69365604 134.26718654 53.81420898 135.91064453 C52.47791768 136.72350999 51.14478136 137.54157622 49.81420898 138.36376953 C46.77206284 140.24166704 43.72075232 142.10311351 40.66186523 143.95361328 C35.84147817 146.88045043 31.07419782 149.88685905 26.31420898 152.91064453 C20.01638807 156.90804828 13.68671904 160.84588636 7.31420898 164.72314453 C-4.34199271 171.79334953 -4.34199271 171.79334953 -15.68579102 179.34814453 C-18.18579102 180.91064453 -18.18579102 180.91064453 -21.18579102 180.91064453 C-21.18579102 181.57064453 -21.18579102 182.23064453 -21.18579102 182.91064453 C-20.16485352 183.27416016 -20.16485352 183.27416016 -19.12329102 183.64501953 C-14.95282235 185.44187039 -11.16688356 187.8822472 -7.35766602 190.34033203 C-3.75905206 192.53315086 -3.75905206 192.53315086 0.31811523 192.41064453 C1.14182617 191.91564453 1.96553711 191.42064453 2.81420898 190.91064453 C3.87510742 190.28673828 4.93600586 189.66283203 6.02905273 189.02001953 C7.27264323 188.23784563 8.51334157 187.45106181 9.75170898 186.66064453 C10.43918213 186.2266333 11.12665527 185.79262207 11.83496094 185.34545898 C14.16471212 183.87237378 16.48995162 182.39238186 18.81420898 180.91064453 C19.65790039 180.37294434 20.5015918 179.83524414 21.37084961 179.28125 C22.24418945 178.72453613 23.1175293 178.16782227 24.01733398 177.59423828 C24.91266846 177.02350586 25.80800293 176.45277344 26.73046875 175.86474609 C28.59577298 174.67565779 30.46084026 173.48619772 32.32568359 172.29638672 C38.62473965 168.28411133 44.95687926 164.32980915 51.31420898 160.41064453 C54.81554868 158.2461375 58.31502948 156.07864151 61.81420898 153.91064453 C62.81774414 153.2902832 63.8212793 152.66992188 64.85522461 152.03076172 C67.93060026 150.12471948 70.99816798 148.20665786 74.06420898 146.28564453 C75.02391602 145.69332031 75.98362305 145.10099609 76.97241211 144.49072266 C77.85348633 143.93578125 78.73456055 143.38083984 79.64233398 142.80908203 C80.81650879 142.0769751 80.81650879 142.0769751 82.0144043 141.33007812 C84.30040269 139.5272031 84.67891894 137.87671113 85.07577515 135.0428772 C87.95772475 112.85885064 87.95772475 112.85885064 83.0871582 91.86816406 C78.4678309 87.33643591 72.78378013 85.19519591 66.7644043 83.05957031 C61.9469368 81.18345297 57.81059399 78.35666745 53.50170898 75.53564453 C51.7610737 74.45162075 50.01753117 73.37225245 48.27124023 72.29736328 C42.40357986 68.65879406 36.54538081 65.00516716 30.68920898 61.34814453 C29.18958618 60.41446045 29.18958618 60.41446045 27.65966797 59.46191406 C22.81350308 56.43874181 17.99125799 53.38733492 13.21264648 50.25830078 C12.34140137 49.69248291 11.47015625 49.12666504 10.57250977 48.54370117 C8.941552 47.48184829 7.3170951 46.40991927 5.70043945 45.32641602 C4.98001465 44.85921143 4.25958984 44.39200684 3.51733398 43.91064453 C2.89503906 43.49814453 2.27274414 43.08564453 1.6315918 42.66064453 C-0.79877491 41.65767751 -1.74647407 41.95868836 -4.18579102 42.91064453 C-6.0076419 43.9040609 -7.79624318 44.95930449 -9.56079102 46.05126953 C-11.14694214 47.02906372 -11.14694214 47.02906372 -12.76513672 48.02661133 C-13.90551568 48.73769781 -15.04572994 49.44904849 -16.18579102 50.16064453 C-17.3642927 50.89107549 -18.54292361 51.621298 -19.72167969 52.35131836 C-27.52101487 57.19360327 -35.24146032 62.1512163 -42.91845703 67.18505859 C-51.36361028 72.71217455 -59.95031143 78.00191557 -68.54907227 83.28564453 C-71.172677 84.90256241 -73.7896096 86.52974278 -76.40454102 88.16064453 C-91.16647926 97.36011329 -106.08343292 106.28072562 -121.18579102 114.91064453 C-121.51579102 101.38064453 -121.84579102 87.85064453 -122.18579102 73.91064453 C-118.22579102 71.60064453 -114.26579102 69.29064453 -110.18579102 66.91064453 C-106.96823131 64.94435804 -103.75955288 62.96926987 -100.56079102 60.97314453 C-98.74463542 59.84383508 -96.92821624 58.71494944 -95.11157227 57.58642578 C-94.15847168 56.9942627 -93.20537109 56.40209961 -92.22338867 55.79199219 C-89.00091163 53.79613878 -85.77203849 51.81099855 -82.54125977 49.82861328 C-81.97663025 49.48206192 -81.41200073 49.13551056 -80.83026123 48.77845764 C-78.0863031 47.09443816 -75.34155458 45.41173342 -72.59545898 43.73120117 C-67.74156698 40.75182326 -62.91165848 37.74559238 -58.13452148 34.64424133 C-49.31925692 28.92161072 -40.29370355 23.58911745 -31.22021484 18.28833008 C-29.19735244 17.10505436 -27.17719269 15.91733566 -25.15844727 14.72705078 C-24.50155914 14.34094635 -23.84467102 13.95484192 -23.1678772 13.55703735 C-19.69480213 11.49110725 -16.30998422 9.34428645 -12.98217773 7.05078125 C-12.30223251 6.58308823 -11.62228729 6.1153952 -10.92173767 5.63352966 C-9.62399657 4.73153855 -8.33408484 3.81814524 -7.05348206 2.89198303 C-2.74537649 -0.11223141 -2.74537649 -0.11223141 0 0 Z " fill="#338D65" transform="translate(279.185791015625,352.08935546875)"/>
<path d="M0 0 C36.3 0 72.6 0 110 0 C110 8.25 110 16.5 110 25 C55.17021277 26.19148936 55.17021277 26.19148936 28 26 C27.67 29.63 27.34 33.26 27 37 C52.08 37 77.16 37 103 37 C103 45.58 103 54.16 103 63 C77.92 63 52.84 63 27 63 C27.495 69.93 27.495 69.93 28 77 C55.06 77 82.12 77 110 77 C110 85.91 110 94.82 110 104 C73.7 104 37.4 104 0 104 C0 69.68 0 35.36 0 0 Z " fill="#9EC109" transform="translate(665,446)"/>
<path d="M0 0 C36.3 0 72.6 0 110 0 C110 8.25 110 16.5 110 25 C82.61 25 55.22 25 27 25 C27 28.63 27 32.26 27 36 C65.115 36.495 65.115 36.495 104 37 C104 45.58 104 54.16 104 63 C78.26 63 52.52 63 26 63 C26.495 63.99 26.495 63.99 27 65 C27 68.96 27 72.92 27 77 C54.39 77 81.78 77 110 77 C110 85.91 110 94.82 110 104 C73.7 104 37.4 104 0 104 C0 69.68 0 35.36 0 0 Z " fill="#9CC009" transform="translate(425,446)"/>
<path d="M0 0 C1.93476518 0.97115787 3.76561262 1.96934347 5.58764648 3.14111328 C6.68375244 3.83998657 6.68375244 3.83998657 7.80200195 4.55297852 C8.98366943 5.31783569 8.98366943 5.31783569 10.18920898 6.09814453 C11.02210449 6.63060791 11.855 7.16307129 12.71313477 7.71166992 C14.49825406 8.85323897 16.28190054 9.99711378 18.06420898 11.14306641 C22.5979663 14.05716468 27.14338348 16.95292032 31.68920898 19.84814453 C32.60653809 20.43273437 33.52386719 21.01732422 34.46899414 21.61962891 C53.00044467 33.40971712 71.7648249 44.83336134 90.5546875 56.20581055 C92.54639592 57.41679899 94.53395089 58.63464757 96.51708984 59.85961914 C100.75100532 62.4736392 104.96194629 65.03316983 109.38842773 67.30908203 C112.93003386 69.19407506 116.02575614 70.96177308 118.81420898 73.91064453 C119.93328815 78.78774767 119.69253636 83.01013544 118.81420898 87.91064453 C116.6783422 84.70684436 116.58288724 83.89124486 116.68920898 80.22314453 C116.70725586 79.41490234 116.72530273 78.60666016 116.74389648 77.77392578 C116.76709961 77.15904297 116.79030273 76.54416016 116.81420898 75.91064453 C116.15420898 75.91064453 115.49420898 75.91064453 114.81420898 75.91064453 C114.15420898 74.92064453 113.49420898 73.93064453 112.81420898 72.91064453 C110.86587964 71.90895923 110.86587964 71.90895923 108.68920898 71.22314453 C107.96475586 70.97177734 107.24030273 70.72041016 106.49389648 70.46142578 C105.93959961 70.27966797 105.38530273 70.09791016 104.81420898 69.91064453 C104.81420898 69.25064453 104.81420898 68.59064453 104.81420898 67.91064453 C98.13603885 73.57697071 93.86879349 81.7997478 90.81420898 89.91064453 C90.4693042 90.57281982 90.12439941 91.23499512 89.76904297 91.91723633 C88.35479774 96.35090053 88.56909365 100.61817892 88.61889648 105.24267578 C88.62172638 106.23442307 88.62455627 107.22617035 88.62747192 108.24797058 C88.63864095 111.40648612 88.66373972 114.56471511 88.68920898 117.72314453 C88.69924301 119.86832272 88.70836813 122.01350536 88.71655273 124.15869141 C88.73856954 129.40943974 88.77201456 134.66002166 88.81420898 139.91064453 C88.15420898 139.91064453 87.49420898 139.91064453 86.81420898 139.91064453 C86.80486328 138.62899414 86.79551758 137.34734375 86.78588867 136.02685547 C86.74600837 131.27048011 86.68025483 126.51475291 86.60668945 121.75878906 C86.5784685 119.70060555 86.55725957 117.64231343 86.54321289 115.58398438 C86.52179909 112.62459668 86.47515678 109.66651634 86.42358398 106.70751953 C86.42174103 105.32762848 86.42174103 105.32762848 86.41986084 103.91986084 C86.3512129 98.87017897 86.3512129 98.87017897 84.07983398 94.4921875 C81.73505107 92.85538753 79.41100342 91.27534646 76.95483398 89.80908203 C75.5414978 88.95842163 75.5414978 88.95842163 74.09960938 88.09057617 C73.09792725 87.49494873 72.09624512 86.89932129 71.06420898 86.28564453 C68.96351874 85.02203591 66.86325925 83.7577109 64.76342773 82.49267578 C63.73910645 81.87730957 62.71478516 81.26194336 61.65942383 80.62792969 C58.0426255 78.44494021 54.45351149 76.22090115 50.87670898 73.97314453 C50.2631958 73.58803711 49.64968262 73.20292969 49.01757812 72.80615234 C47.70058066 71.97913458 46.38377576 71.15181012 45.06713867 70.32421875 C42.43583988 68.67324129 39.80098909 67.02801592 37.16577148 65.38330078 C36.15925537 64.75480225 35.15273926 64.12630371 34.11572266 63.47875977 C32.04902111 62.18915745 29.98148228 60.90089594 27.91308594 59.61401367 C22.97556365 56.53674539 18.06043322 53.43393757 13.19311523 50.24658203 C12.32468994 49.68245605 11.45626465 49.11833008 10.56152344 48.53710938 C8.93470575 47.47758651 7.31435061 46.40805267 5.70166016 45.32714844 C4.98083252 44.85970215 4.26000488 44.39225586 3.51733398 43.91064453 C2.89503906 43.49814453 2.27274414 43.08564453 1.6315918 42.66064453 C-0.79877491 41.65767751 -1.74647407 41.95868836 -4.18579102 42.91064453 C-6.0076419 43.9040609 -7.79624318 44.95930449 -9.56079102 46.05126953 C-11.14694214 47.02906372 -11.14694214 47.02906372 -12.76513672 48.02661133 C-13.90551568 48.73769781 -15.04572994 49.44904849 -16.18579102 50.16064453 C-17.3642927 50.89107549 -18.54292361 51.621298 -19.72167969 52.35131836 C-27.52101487 57.19360327 -35.24146032 62.1512163 -42.91845703 67.18505859 C-51.36361028 72.71217455 -59.95031143 78.00191557 -68.54907227 83.28564453 C-71.172677 84.90256241 -73.7896096 86.52974278 -76.40454102 88.16064453 C-91.16647926 97.36011329 -106.08343292 106.28072562 -121.18579102 114.91064453 C-121.51579102 101.38064453 -121.84579102 87.85064453 -122.18579102 73.91064453 C-118.22579102 71.60064453 -114.26579102 69.29064453 -110.18579102 66.91064453 C-106.96823131 64.94435804 -103.75955288 62.96926987 -100.56079102 60.97314453 C-98.74463542 59.84383508 -96.92821624 58.71494944 -95.11157227 57.58642578 C-94.15847168 56.9942627 -93.20537109 56.40209961 -92.22338867 55.79199219 C-89.00091163 53.79613878 -85.77203849 51.81099855 -82.54125977 49.82861328 C-81.97663025 49.48206192 -81.41200073 49.13551056 -80.83026123 48.77845764 C-78.0863031 47.09443816 -75.34155458 45.41173342 -72.59545898 43.73120117 C-67.74156698 40.75182326 -62.91165848 37.74559238 -58.13452148 34.64424133 C-49.31925692 28.92161072 -40.29370355 23.58911745 -31.22021484 18.28833008 C-29.19735244 17.10505436 -27.17719269 15.91733566 -25.15844727 14.72705078 C-24.50155914 14.34094635 -23.84467102 13.95484192 -23.1678772 13.55703735 C-19.69480213 11.49110725 -16.30998422 9.34428645 -12.98217773 7.05078125 C-12.30223251 6.58308823 -11.62228729 6.1153952 -10.92173767 5.63352966 C-9.62399657 4.73153855 -8.33408484 3.81814524 -7.05348206 2.89198303 C-2.74537649 -0.11223141 -2.74537649 -0.11223141 0 0 Z " fill="#9CC009" transform="translate(279.185791015625,352.08935546875)"/>
<path d="M0 0 C35.31 0 70.62 0 107 0 C107 8.25 107 16.5 107 25 C51.78723404 26.19148936 51.78723404 26.19148936 27 26 C26.67 29.63 26.34 33.26 26 37 C50.42 37 74.84 37 100 37 C100 45.58 100 54.16 100 63 C75.58 63 51.16 63 26 63 C26.33 64.65 26.66 66.3 27 68 C27 70.97 27 73.94 27 77 C53.4 77 79.8 77 107 77 C107 85.91 107 94.82 107 104 C71.69 104 36.38 104 0 104 C0 69.68 0 35.36 0 0 Z " fill="#9CBF08" transform="translate(1164,446)"/>
<path d="M0 0 C4.5062764 -0.17987015 7.20703216 0.2422529 10.71630859 3.12792969 C19.3329375 13.87255197 25.30289151 27.04797351 31.92424011 39.07615662 C43.23700305 59.60142803 55.01516191 79.92612959 67.22875977 99.92822266 C69.71630859 104.02387779 69.71630859 104.02387779 69.71630859 105.12792969 C58.16630859 105.12792969 46.61630859 105.12792969 34.71630859 105.12792969 C33.39630859 102.73542969 32.07630859 100.34292969 30.71630859 97.87792969 C20.99390543 80.3411035 10.97607127 62.96573631 0.90380859 45.62792969 C0.3234082 44.62552246 -0.25699219 43.62311523 -0.85498047 42.59033203 C-1.39477539 41.66430176 -1.93457031 40.73827148 -2.49072266 39.78417969 C-2.95969971 38.97787109 -3.42867676 38.1715625 -3.91186523 37.34082031 C-5.25899797 35.16776263 -6.71752228 33.14730413 -8.28369141 31.12792969 C-10.32858712 34.56351815 -12.36898828 38.00175627 -14.40869141 41.44042969 C-15.26333984 42.87612305 -15.26333984 42.87612305 -16.13525391 44.34082031 C-19.45519368 49.94321869 -22.66381593 55.58859292 -25.76074219 61.31713867 C-33.80739044 76.16822257 -41.90768849 91.06392531 -51.28369141 105.12792969 C-53.97909455 105.39479182 -56.44216605 105.47611042 -59.13525391 105.42089844 C-59.90928558 105.41665359 -60.68331726 105.41240875 -61.48080444 105.40803528 C-63.95711817 105.39121967 -66.43262299 105.35356364 -68.90869141 105.31542969 C-70.585763 105.30038651 -72.26284733 105.28669747 -73.93994141 105.27441406 C-78.05483722 105.2413069 -82.16912709 105.18950605 -86.28369141 105.12792969 C-84.97295066 101.5026126 -83.38419495 98.65973196 -81.09619141 95.56542969 C-77.09211535 89.96468694 -73.67764834 84.11256446 -70.28369141 78.12792969 C-69.29807191 76.40371097 -68.31244369 74.67949717 -67.32629395 72.95558167 C-66.65043323 71.77336586 -65.97522456 70.59077705 -65.30065918 69.40782166 C-63.05081448 65.46256215 -60.78262393 61.52842644 -58.50244141 57.60058594 C-53.33580234 48.69688224 -48.17800771 39.79287745 -43.21728516 30.77246094 C-42.88117218 30.16227615 -42.5450592 29.55209137 -42.19876099 28.92341614 C-40.58407027 25.98981955 -38.97710474 23.05261959 -37.38134766 20.10864258 C-29.10590291 5.00940403 -29.10590291 5.00940403 -23.28369141 1.12792969 C-21.14233398 0.80908203 -21.14233398 0.80908203 -18.67822266 0.71386719 C-17.32567383 0.65585937 -17.32567383 0.65585937 -15.94580078 0.59667969 C-15.00542969 0.56574219 -14.06505859 0.53480469 -13.09619141 0.50292969 C-12.17515625 0.46425781 -11.25412109 0.42558594 -10.30517578 0.38574219 C-8.48542325 0.31341703 -6.66521434 0.25171363 -4.84472656 0.20117188 C-3.22908664 0.15496673 -1.61377038 0.09040151 0 0 Z " fill="#9CC008" transform="translate(991.28369140625,444.8720703125)"/>
<path d="M0 0 C10.89 0 21.78 0 33 0 C32.02253237 3.90987051 30.7243203 6.5910583 28.7890625 10.1015625 C28.46519058 10.6908252 28.14131866 11.28008789 27.80763245 11.88720703 C26.75207899 13.80280328 25.68905443 15.71411438 24.625 17.625 C24.26274323 18.27893738 23.90048645 18.93287476 23.5272522 19.60662842 C18.42356445 28.81642841 13.14274773 37.88262469 7.57421875 46.8203125 C4.77788228 51.32048313 2.13611377 55.90468782 -0.5 60.5 C-5.83235899 69.77222138 -11.33804967 78.92545781 -17 88 C-17.38317383 88.62116699 -17.76634766 89.24233398 -18.16113281 89.88232422 C-19.19766057 91.55525971 -20.25448699 93.21556895 -21.3125 94.875 C-21.88613281 95.77992188 -22.45976563 96.68484375 -23.05078125 97.6171875 C-26.1713174 101.43187097 -30.03065234 104.32873731 -35 105 C-38.67830956 105.2601436 -42.31776619 105.15420522 -46 105 C-47.55460938 104.95166016 -47.55460938 104.95166016 -49.140625 104.90234375 C-56.80555923 104.21866243 -56.80555923 104.21866243 -59.76977539 101.19433594 C-60.26985107 100.42379883 -60.76992676 99.65326172 -61.28515625 98.859375 C-61.87474121 97.95719238 -62.46432617 97.05500977 -63.07177734 96.12548828 C-66.85052165 90.00045858 -70.54512555 83.83202461 -74.1875 77.625 C-75.4601437 75.46652265 -76.73415323 73.30885507 -78.00816345 71.15118408 C-78.84757001 69.72923113 -79.68649297 68.30699259 -80.5249176 66.88446045 C-83.75590674 61.40380529 -87.02506615 55.94698297 -90.3125 50.5 C-117 6.14738102 -117 6.14738102 -117 1 C-105.78 1 -94.56 1 -83 1 C-80.36 5.95 -77.72 10.9 -75 16 C-72.40189141 20.47825078 -69.78723277 24.93576768 -67.125 29.375 C-66.07181083 31.13905341 -65.01968543 32.90373862 -63.96755981 34.66842651 C-62.94200631 36.38811797 -61.91535006 38.10715163 -60.88867188 39.82617188 C-58.35867563 44.07771675 -55.86656784 48.35087489 -53.375 52.625 C-50.41835899 57.69222595 -47.35381735 62.64419706 -43.9609375 67.43359375 C-43 69 -43 69 -43 71 C-42.34 71 -41.68 71 -41 71 C-40.74420166 70.30503418 -40.48840332 69.61006836 -40.22485352 68.89404297 C-38.85180156 65.64984167 -37.19142521 62.73042131 -35.40234375 59.6953125 C-35.05222229 59.0993074 -34.70210083 58.50330231 -34.34136963 57.88923645 C-33.21018474 55.96577512 -32.0739886 54.04533151 -30.9375 52.125 C-30.15447361 50.79644097 -29.37167808 49.46774584 -28.58911133 48.13891602 C-23.82185468 40.05093474 -19.02980282 31.97813582 -14.17333984 23.94335938 C-11.60865269 19.69556292 -9.05502189 15.44111395 -6.5 11.1875 C-5.97043701 10.30763428 -5.44087402 9.42776855 -4.89526367 8.52124023 C-4.40388916 7.70341064 -3.91251465 6.88558105 -3.40625 6.04296875 C-2.96603516 5.31102295 -2.52582031 4.57907715 -2.07226562 3.82495117 C-1.33767559 2.5747097 -0.6484946 1.29698921 0 0 Z " fill="#9CC009" transform="translate(903,445)"/>
<path d="M0 0 C38.28 0 76.56 0 116 0 C116 8.58 116 17.16 116 26 C101.81 26 87.62 26 73 26 C73 51.74 73 77.48 73 104 C63.76 104 54.52 104 45 104 C45 78.26 45 52.52 45 26 C29.82 26 14.64 26 -1 26 C-0.67 17.42 -0.34 8.84 0 0 Z " fill="#9EC109" transform="translate(1035,446)"/>
<path d="M0 0 C9.9 0 19.8 0 30 0 C30 25.74 30 51.48 30 78 C55.08 78 80.16 78 106 78 C106 86.91 106 95.82 106 105 C92.91758958 105.02258523 79.8351921 105.04093498 66.75276661 105.05181217 C60.67818795 105.05703246 54.60362332 105.06411467 48.52905273 105.07543945 C42.66762339 105.08629859 36.80620753 105.09228328 30.94476891 105.09487724 C28.70765661 105.09672602 26.47054505 105.10033616 24.23343849 105.10573006 C21.10197982 105.11298058 17.97057703 105.11398924 14.83911133 105.11352539 C13.91266312 105.11712067 12.9862149 105.12071594 12.0316925 105.12442017 C11.17498962 105.1230455 10.31828674 105.12167084 9.43562317 105.12025452 C8.6954234 105.12117631 7.95522364 105.1220981 7.19259357 105.12304783 C5 105 5 105 0 104 C0 69.68 0 35.36 0 0 Z " fill="#9DC009" transform="translate(550,445)"/>
<path d="M0 0 C8.25 0 16.5 0 25 0 C25 21.12 25 42.24 25 64 C16.75 64 8.5 64 0 64 C0 42.88 0 21.76 0 0 Z " fill="#9ABE08" transform="translate(1285,446)"/>
<path d="M0 0 C0.33 0 0.66 0 1 0 C1 15.18 1 30.36 1 46 C2.65 46.66 4.3 47.32 6 48 C7.48726917 48.81337098 8.95615903 49.66112281 10.40625 50.5390625 C11.23382813 51.03792969 12.06140625 51.53679688 12.9140625 52.05078125 C13.76742187 52.57027344 14.62078125 53.08976563 15.5 53.625 C16.32242188 54.12128906 17.14484375 54.61757813 17.9921875 55.12890625 C23.89192483 58.69597821 29.76059963 62.31311629 35.63037109 65.92919922 C44.3075708 71.26176029 53.02276936 76.5323304 61.73464966 81.8079834 C65.53454591 84.10958986 69.32902208 86.41988854 73.12109375 88.734375 C74.9139195 89.82315217 76.70687863 90.91170976 78.5 92 C79.31154541 92.49790039 80.12309082 92.99580078 80.95922852 93.50878906 C81.70487061 93.95963867 82.4505127 94.41048828 83.21875 94.875 C84.1768457 95.45894531 84.1768457 95.45894531 85.15429688 96.0546875 C87.13807775 97.07071918 88.78995253 97.69160831 91 98 C93.88522971 96.43754699 93.88522971 96.43754699 96.875 94.125 C98.05067297 93.2753887 99.22780148 92.42778852 100.40625 91.58203125 C101.00695312 91.14713379 101.60765625 90.71223633 102.2265625 90.26416016 C114.61850736 81.43080519 127.98601688 73.86127481 141 66 C141.73460449 65.55591797 142.46920898 65.11183594 143.22607422 64.65429688 C153.81971409 58.25597768 164.49114497 51.99099206 175.16601562 45.72949219 C177.31935606 44.46608242 179.47228204 43.20197009 181.625 41.9375 C182.66696533 41.32588013 182.66696533 41.32588013 183.72998047 40.7019043 C187.28706657 38.61011166 190.83406768 36.50314881 194.3671875 34.37109375 C195.41011963 33.74182983 195.41011963 33.74182983 196.47412109 33.09985352 C197.79863133 32.29904996 199.12192796 31.49623478 200.44384766 30.69116211 C204.89139222 28 204.89139222 28 206 28 C206.07363699 29.35542981 206.14634548 30.71091005 206.21875 32.06640625 C206.28860107 33.37279053 206.28860107 33.37279053 206.35986328 34.70556641 C206.45389873 36.62264458 206.5354481 38.54037289 206.60498047 40.45849609 C206.76317854 44.80712042 206.94857557 49.05167701 207.6640625 53.34765625 C208.16213519 57.42931972 208.30551777 60.08809266 207 64 C203.00307259 68.34430435 197.55060703 70.95695619 192.39892578 73.68945312 C188.62723557 75.74994906 185.08003862 78.12712043 181.5 80.5 C180.08182241 81.41965681 178.66254749 82.33762364 177.2421875 83.25390625 C174.43305181 85.07139252 171.62592213 86.89191957 168.8203125 88.71484375 C162.91924146 92.54576159 157.01561997 96.3696934 151.05859375 100.11328125 C150.22569824 100.63672119 149.39280273 101.16016113 148.53466797 101.69946289 C146.94800244 102.69461525 145.35990688 103.68749329 143.77001953 104.67749023 C139.83913581 107.14105588 135.99364655 109.68254869 132.20703125 112.36328125 C126.46893793 116.41637452 120.5575338 120.17708585 114.625 123.9375 C112.51227243 125.27876978 110.40029129 126.62121605 108.2890625 127.96484375 C107.25426758 128.61952637 106.21947266 129.27420898 105.15332031 129.94873047 C102.9669423 131.3709934 100.83522444 132.80906422 98.71386719 134.32080078 C97.66102539 135.06185059 96.60818359 135.80290039 95.5234375 136.56640625 C94.58161621 137.24775635 93.63979492 137.92910645 92.66943359 138.63110352 C90 140 90 140 87.39038086 139.85742188 C85.0598724 139.02147604 83.26635665 138.11341022 81.23046875 136.71484375 C80.56982422 136.26689453 79.90917969 135.81894531 79.22851562 135.35742188 C78.21821289 134.65456055 78.21821289 134.65456055 77.1875 133.9375 C76.49462891 133.46505859 75.80175781 132.99261719 75.08789062 132.50585938 C73.3869352 131.3445174 71.69277605 130.1732322 70 129 C70.66 128.34 71.32 127.68 72 127 C75.875 128.75 75.875 128.75 77 131 C77.99 131.33 78.98 131.66 80 132 C80 132.66 80 133.32 80 134 C83.62197194 135.49140021 87.27566618 136.7874262 91 138 C91 137.34 91 136.68 91 136 C91.99 136 92.98 136 94 136 C94 135.34 94 134.68 94 134 C94.66 134 95.32 134 96 134 C96 133.34 96 132.68 96 132 C96.9590625 131.566875 96.9590625 131.566875 97.9375 131.125 C100.15206079 130.17176549 100.15206079 130.17176549 101 128 C101.66 128 102.32 128 103 128 C105.95240565 127.28662376 105.95240565 127.28662376 107.3125 125.5625 C109.61015902 123.43503794 112.02750796 122.85871992 115 122 C115 121.34 115 120.68 115 120 C116.11375 119.62875 116.11375 119.62875 117.25 119.25 C120.23088821 117.89505081 121.74251979 116.33030215 124 114 C126.69723904 112.36530967 127.78120986 112 131 112 C131 111.34 131 110.68 131 110 C131.99 110 132.98 110 134 110 C134.33 109.01 134.66 108.02 135 107 C136.65549028 106.00670583 138.31820693 105.02243336 140.0234375 104.1171875 C142.06486073 102.96333959 143.87814171 101.65986773 145.75 100.25 C149 98 149 98 152 98 C152 97.34 152 96.68 152 96 C153.63978318 94.95650161 155.31464976 93.96817992 157 93 C158.17492699 92.17835402 159.34126618 91.34432902 160.5 90.5 C168.14350453 85 168.14350453 85 172 85 C172.33 84.01 172.66 83.02 173 82 C174.73360823 81.28038904 176.46944915 80.56498059 178.22265625 79.89453125 C180.87651416 78.55885331 182.23466041 76.33277017 184 74 C184.99 74 185.98 74 187 74 C187.66 73.34 188.32 72.68 189 72 C193.61538462 69 193.61538462 69 196 69 C196 68.34 196 67.68 196 67 C197.32 67 198.64 67 200 67 C200 66.34 200 65.68 200 65 C201.98 64.01 201.98 64.01 204 63 C203.98839844 61.75605469 203.97679687 60.51210938 203.96484375 59.23046875 C203.90828901 50.43355571 203.89940035 41.74583651 205 33 C202.13275314 33.57344937 201.1385485 33.8614515 199 36 C198.34 36 197.68 36 197 36 C196.67 36.66 196.34 37.32 196 38 C194.30956452 38.76235326 192.6153182 39.51798237 190.8984375 40.21875 C187.02463339 41.81290807 183.48473516 43.67684323 180 46 C177 48 177 48 173.6875 49.625 C170.89323374 50.71972652 170.89323374 50.71972652 170 53 C167.04109405 54.56674294 164.01578356 55.9548973 160.98046875 57.3671875 C158.05463102 58.97007108 156.33121176 60.66405961 154 63 C152.35841732 63.72624275 150.68748669 64.38794536 149 65 C146.79832463 66.11835407 144.61143914 67.26614229 142.4375 68.4375 C141.32246094 69.03433594 140.20742188 69.63117188 139.05859375 70.24609375 C136.5254531 71.69868654 134.28915848 73.20247287 132 75 C129.46295169 76.6023463 126.98346258 78.00751701 124.25 79.25 C120.52852958 81.25386869 117.47367768 83.72007269 114.18359375 86.35546875 C111.61206208 88.29216792 108.91501959 89.64913726 106 91 C105.34 91.66 104.68 92.32 104 93 C103.29875 93.226875 102.5975 93.45375 101.875 93.6875 C97.5830056 95.64688875 94.4354888 98.81173 91 102 C90.67 101.34 90.34 100.68 90 100 C88.00491933 99.31875294 86.00361307 98.65572791 84 98 C71.13554987 92.27109974 71.13554987 92.27109974 69 88 C68.25621094 87.86207031 67.51242187 87.72414063 66.74609375 87.58203125 C63.50392938 86.89485843 61.71913826 85.64745271 59.0625 83.6875 C58.19496094 83.05972656 57.32742187 82.43195313 56.43359375 81.78515625 C55.63050781 81.19605469 54.82742187 80.60695313 54 80 C49.39006283 76.66226945 49.39006283 76.66226945 44 75 C44 74.34 44 73.68 44 73 C41.03 72.01 41.03 72.01 38 71 C38 70.34 38 69.68 38 69 C37.01 69.33 36.02 69.66 35 70 C35 69.34 35 68.68 35 68 C32.55329037 66.72771099 30.12907954 65.65163182 27.5625 64.625 C24 63 24 63 21.671875 61.125 C17.87401474 58.10447956 13.68758206 55.92751819 9.44921875 53.5859375 C8.23685547 52.80089844 8.23685547 52.80089844 7 52 C7 51.34 7 50.68 7 50 C6.4225 49.9175 5.845 49.835 5.25 49.75 C2.22243442 48.74081147 0.9999391 47.4907217 -1 45 C-1.64453125 41.79296875 -1.64453125 41.79296875 -1.8125 38.1875 C-1.88082031 37.00542969 -1.94914063 35.82335937 -2.01953125 34.60546875 C-1.99976607 30.9568172 -1.51581835 27.61072845 -1 24 C-0.73805544 19.85694032 -0.58768072 15.71093455 -0.4375 11.5625 C-0.39431641 10.44939453 -0.35113281 9.33628906 -0.30664062 8.18945312 C-0.20120112 5.45974156 -0.09907971 2.72994857 0 0 Z " fill="#085D88" transform="translate(192,512)"/>
<path d="M0 0 C36.3 0 72.6 0 110 0 C110 8.25 110 16.5 110 25 C82.94 25 55.88 25 28 25 C28 24.67 28 24.34 28 24 C67.6 23.505 67.6 23.505 108 23 C108 15.74 108 8.48 108 1 C72.69 1 37.38 1 1 1 C1 34.33 1 67.66 1 102 C36.31 102 71.62 102 108 102 C108 94.08 108 86.16 108 78 C81.27 78 54.54 78 27 78 C27 75.36 27 72.72 27 70 C27.33 70 27.66 70 28 70 C28 72.31 28 74.62 28 77 C55.06 77 82.12 77 110 77 C110 85.91 110 94.82 110 104 C73.7 104 37.4 104 0 104 C0 69.68 0 35.36 0 0 Z " fill="#89B301" transform="translate(665,446)"/>
<path d="M0 0 C8.25 0 16.5 0 25 0 C25 8.25 25 16.5 25 25 C16.75 25 8.5 25 0 25 C0 16.75 0 8.5 0 0 Z " fill="#9BBE09" transform="translate(1285,525)"/>
<path d="M0 0 C38.28 0 76.56 0 116 0 C116 8.58 116 17.16 116 26 C101.81 26 87.62 26 73 26 C73 51.74 73 77.48 73 104 C63.76 104 54.52 104 45 104 C45 78.26 45 52.52 45 26 C29.82 26 14.64 26 -1 26 C-0.67 17.42 -0.34 8.84 0 0 Z M1 1 C1 8.59 1 16.18 1 24 C5.74697266 24.09087891 5.74697266 24.09087891 10.58984375 24.18359375 C13.64122028 24.2453305 16.69255776 24.30873997 19.74389648 24.37231445 C21.87114007 24.41573423 23.9984201 24.45740393 26.12573242 24.49731445 C29.17638151 24.55484707 32.22684589 24.61858967 35.27734375 24.68359375 C36.23462875 24.70030624 37.19191376 24.71701874 38.1782074 24.73423767 C39.05904495 24.75418289 39.93988251 24.77412811 40.84741211 24.79467773 C41.62684677 24.81022202 42.40628143 24.8257663 43.20933533 24.84178162 C45 25 45 25 46 26 C46.09494733 28.37300869 46.12559319 30.71678703 46.11352539 33.09008789 C46.11367142 33.83150528 46.11381744 34.57292267 46.1139679 35.33680725 C46.11326865 37.79878621 46.10547574 40.26069043 46.09765625 42.72265625 C46.09579211 44.42516539 46.09436819 46.12767507 46.09336853 47.83018494 C46.08954302 52.31993073 46.07971247 56.80964438 46.06866455 61.29937744 C46.05845113 65.87731491 46.05387106 70.45525756 46.04882812 75.03320312 C46.03809022 84.02215184 46.02049316 93.01106822 46 102 C54.58 102 63.16 102 72 102 C72.33 76.59 72.66 51.18 73 25 C86.86 24.67 100.72 24.34 115 24 C115 16.41 115 8.82 115 1 C77.38 1 39.76 1 1 1 Z " fill="#8AB401" transform="translate(1035,446)"/>
<path d="M0 0 C1.46324165 0.76410873 2.89825727 1.58356634 4.30859375 2.44140625 C5.13190186 2.93890381 5.95520996 3.43640137 6.8034668 3.94897461 C8.10731323 4.74766968 8.10731323 4.74766968 9.4375 5.5625 C10.33186768 6.10463135 11.22623535 6.6467627 12.14770508 7.20532227 C18.18934864 10.8731716 24.20092936 14.58922179 30.2109375 18.30859375 C34.07868256 20.65415903 38.01605226 22.85875677 42 25 C42 25.66 42 26.32 42 27 C43.25876953 27.35384766 43.25876953 27.35384766 44.54296875 27.71484375 C48.54349451 29.20204485 51.77690835 31.20915666 55.3125 33.5625 C55.94478516 33.97435547 56.57707031 34.38621094 57.22851562 34.81054688 C61.81247574 37.81247574 61.81247574 37.81247574 63 39 C63.22408001 43.00048725 63.08113041 46.99597552 63 51 C63.02964844 51.92683594 63.05929687 52.85367188 63.08984375 53.80859375 C63.06134779 56.48314308 62.92720426 58.48584997 62 61 C59.02728323 63.90304372 55.31483057 67 51 67 C51 66.34 51 65.68 51 65 C51.66 65 52.32 65 53 65 C53 64.34 53 63.68 53 63 C56.46153846 60 56.46153846 60 59 60 C59.06058594 59.36191406 59.12117187 58.72382813 59.18359375 58.06640625 C59.26738281 57.24011719 59.35117187 56.41382813 59.4375 55.5625 C59.55931641 54.32693359 59.55931641 54.32693359 59.68359375 53.06640625 C60 51 60 51 61 50 C61.07179964 48.48071962 61.08392007 46.95832518 61.0625 45.4375 C61.05347656 44.61121094 61.04445313 43.78492188 61.03515625 42.93359375 C61.02355469 42.29550781 61.01195312 41.65742188 61 41 C60.01 40.67 59.02 40.34 58 40 C58 39.34 58 38.68 58 38 C57.05125 37.7525 56.1025 37.505 55.125 37.25 C52 36 52 36 50.625 33.875 C50.41875 33.25625 50.2125 32.6375 50 32 C48.35 32 46.7 32 45 32 C45 31.34 45 30.68 45 30 C44.34 30 43.68 30 43 30 C43 29.34 43 28.68 43 28 C42.484375 27.9175 41.96875 27.835 41.4375 27.75 C37.95544268 26.67859775 35.12799115 24.86476395 32 23 C32 22.34 32 21.68 32 21 C31.443125 20.87625 30.88625 20.7525 30.3125 20.625 C27.77885636 19.94023145 25.42078968 19.00866237 23 18 C23 17.34 23 16.68 23 16 C21.02 15.34 19.04 14.68 17 14 C17 13.34 17 12.68 17 12 C16.34 11.7525 15.68 11.505 15 11.25 C11.23639093 9.68182955 7.6288576 7.85494954 4 6 C4 5.34 4 4.68 4 4 C-2.3297057 2.50388774 -5.44712237 3.18658071 -10.96484375 6.59375 C-13.40677624 8.28107379 -15.68929062 10.13859522 -18 12 C-19.175625 12.4640625 -19.175625 12.4640625 -20.375 12.9375 C-24.00457138 14.40661222 -26.86426625 16.68618765 -30 19 C-35.63344051 23 -35.63344051 23 -38 23 C-38.33 23.66 -38.66 24.32 -39 25 C-39.9075 25.433125 -40.815 25.86625 -41.75 26.3125 C-45.11754076 27.85354548 -45.11754076 27.85354548 -47.625 30.625 C-49.93481642 32.93481642 -50.84023089 33.67312733 -54 34 C-54.66 34 -55.32 34 -56 34 C-56 34.66 -56 35.32 -56 36 C-56.54527344 36.21914063 -57.09054688 36.43828125 -57.65234375 36.6640625 C-65.25412777 39.86071014 -71.66263201 44.18840913 -78.1875 49.1875 C-81.31926588 51.56714888 -84.42871273 53.32368148 -88 55 C-89.56955951 55.81995954 -91.13164821 56.65431927 -92.6875 57.5 C-93.43386719 57.9021875 -94.18023437 58.304375 -94.94921875 58.71875 C-97.02108734 59.90564863 -97.02108734 59.90564863 -98.52734375 61.53125 C-100.19518547 63.19466774 -101.74675268 64.00626584 -103.875 65 C-109.8421232 67.48308556 -109.8421232 67.48308556 -114 72 C-116.0625 72.625 -116.0625 72.625 -118 73 C-118.33 72.01 -118.66 71.02 -119 70 C-117.84951172 69.35998047 -117.84951172 69.35998047 -116.67578125 68.70703125 C-102.72843778 60.85051373 -89.13924488 52.39596365 -75.75 43.625 C-67.76068843 38.39538655 -59.57452423 33.5129635 -51.37353516 28.62426758 C-44.90732575 24.76308972 -38.48535048 20.8456971 -32.125 16.8125 C-31.37549072 16.3386084 -30.62598145 15.8647168 -29.85375977 15.37646484 C-25.79563403 12.80220523 -21.76320356 10.19250369 -17.74609375 7.5546875 C-16.87903809 6.99160889 -16.01198242 6.42853027 -15.11865234 5.84838867 C-13.45189196 4.76539241 -11.79167194 3.67224268 -10.13916016 2.56762695 C-9.02033447 1.84385864 -9.02033447 1.84385864 -7.87890625 1.10546875 C-7.2247876 0.67387451 -6.57066895 0.24228027 -5.89672852 -0.20239258 C-3.44157642 -1.23482686 -2.46221615 -0.95261844 0 0 Z " fill="#81B416" transform="translate(281,420)"/>
<path d="M0 0 C25.41 0 50.82 0 77 0 C77 8.58 77 17.16 77 26 C51.26 26 25.52 26 -1 26 C-1 25.34 -1 24.68 -1 24 C24.08 24 49.16 24 75 24 C75 16.41 75 8.82 75 1 C73.13085938 1.0721875 71.26171875 1.144375 69.3359375 1.21875 C53.65997205 1.78658065 37.99926324 2.10836384 22.3125 2.125 C21.48167908 2.12749756 20.65085815 2.12999512 19.79486084 2.13256836 C17.42179166 2.13844826 15.04885179 2.13698346 12.67578125 2.1328125 C11.61991066 2.13578842 11.61991066 2.13578842 10.54270935 2.13882446 C6.90340451 2.12161893 3.5395817 1.86147644 0 1 C0 0.67 0 0.34 0 0 Z " fill="#91B800" transform="translate(452,483)"/>
<path d="M0 0 C4.455 0.99 4.455 0.99 9 2 C9 2.66 9 3.32 9 4 C11.475 4.495 11.475 4.495 14 5 C14 5.66 14 6.32 14 7 C14.78375 7.144375 15.5675 7.28875 16.375 7.4375 C19 8 19 8 21 9 C21 9.66 21 10.32 21 11 C22.32 11.66 23.64 12.32 25 13 C25 13.99 25 14.98 25 16 C22.78477014 17.82726848 20.61393515 19.45136563 18.25 21.0625 C17.29867187 21.73249023 17.29867187 21.73249023 16.328125 22.41601562 C8.95717648 27.55264538 8.95717648 27.55264538 4.8125 28.5 C4.214375 28.665 3.61625 28.83 3 29 C2.67 29.66 2.34 30.32 2 31 C0.00892752 32.01765927 -1.99218823 33.01577854 -4 34 C-5.34789347 34.98028616 -6.68212715 35.97971135 -8 37 C-9.66666667 38 -11.33333333 39 -13 40 C-13.70125 40.5775 -14.4025 41.155 -15.125 41.75 C-15.74375 42.1625 -16.3625 42.575 -17 43 C-18.485 42.505 -18.485 42.505 -20 42 C-15.68229017 38.34721748 -11.0408627 35.4141775 -6.25 32.4375 C-1.15537167 29.25304728 3.93102874 26.06159806 8.95703125 22.76953125 C9.73272461 22.26172119 10.50841797 21.75391113 11.30761719 21.23071289 C12.78851301 20.25825369 14.26711083 19.28228419 15.74316406 18.30249023 C20.78100618 15 20.78100618 15 23 15 C19.89945211 11.73895731 16.43197029 9.542971 12.625 7.1875 C11.965 6.75501953 11.305 6.32253906 10.625 5.87695312 C9.97789062 5.47798828 9.33078125 5.07902344 8.6640625 4.66796875 C8.08092285 4.29953857 7.4977832 3.9311084 6.89697266 3.55151367 C4.06818348 2.72908964 2.583474 3.70701807 0 5 C-1.42260081 5.83241148 -2.82138279 6.70668265 -4.1953125 7.6171875 C-4.98494385 8.13643799 -5.7745752 8.65568848 -6.58813477 9.19067383 C-7.84388306 10.02441528 -7.84388306 10.02441528 -9.125 10.875 C-10.90700352 12.04380553 -12.68957078 13.21175197 -14.47265625 14.37890625 C-15.38289551 14.97590332 -16.29313477 15.57290039 -17.23095703 16.18798828 C-21.65997788 19.08625955 -26.10375965 21.96018578 -30.5625 24.8125 C-31.36510254 25.33376465 -32.16770508 25.8550293 -32.99462891 26.39208984 C-34.11297119 27.10486084 -34.11297119 27.10486084 -35.25390625 27.83203125 C-35.90689697 28.25202393 -36.5598877 28.6720166 -37.23266602 29.10473633 C-39 30 -39 30 -42 30 C-41 27 -41 27 -39.25 25.9375 C-36.84206827 24.93419511 -34.43126943 23.94549367 -32 23 C-32 22.34 -32 21.68 -32 21 C-30.35 20.67 -28.7 20.34 -27 20 C-26.67 18.68 -26.34 17.36 -26 16 C-23.39583333 15.47916667 -20.79166667 14.95833333 -18.1875 14.4375 C-17.465625 14.293125 -16.74375 14.14875 -16 14 C-15.67 13.01 -15.34 12.02 -15 11 C-12.6015625 9.2109375 -12.6015625 9.2109375 -9.625 7.375 C-8.64789063 6.76398438 -7.67078125 6.15296875 -6.6640625 5.5234375 C-4 4 -4 4 -1 3 C-0.67 2.01 -0.34 1.02 0 0 Z " fill="#62A82B" transform="translate(274,457)"/>
<path d="M0 0 C9.9 0 19.8 0 30 0 C30 25.74 30 51.48 30 78 C54.42 78 78.84 78 104 78 C104 78.66 104 79.32 104 80 C79.25 80 54.5 80 29 80 C27.5057365 77.01147301 27.91884599 73.97659794 27.97827148 70.70458984 C27.98787903 69.95327286 27.99748657 69.20195587 28.00738525 68.4278717 C28.04042694 65.93879984 28.08073947 63.44990068 28.12109375 60.9609375 C28.14538982 59.23744317 28.16923363 57.51394241 28.19264221 55.79043579 C28.25553421 51.24968146 28.32458634 46.70904069 28.39489746 42.168396 C28.46553475 37.53679586 28.53037925 32.90511508 28.59570312 28.2734375 C28.72478142 19.18220068 28.86089896 10.091089 29 1 C19.43 1 9.86 1 0 1 C0 0.67 0 0.34 0 0 Z " fill="#ABC831" transform="translate(550,445)"/>
<path d="M0 0 C0.99 0.99 0.99 0.99 2 2 C-2.75 6 -2.75 6 -5 6 C-5.33 6.66 -5.66 7.32 -6 8 C-6.9075 8.433125 -7.815 8.86625 -8.75 9.3125 C-12.11754076 10.85354548 -12.11754076 10.85354548 -14.625 13.625 C-16.93481642 15.93481642 -17.84023089 16.67312733 -21 17 C-21.66 17 -22.32 17 -23 17 C-23 17.66 -23 18.32 -23 19 C-23.54527344 19.21914063 -24.09054688 19.43828125 -24.65234375 19.6640625 C-32.25412777 22.86071014 -38.66263201 27.18840913 -45.1875 32.1875 C-48.31926588 34.56714888 -51.42871273 36.32368148 -55 38 C-56.56955951 38.81995954 -58.13164821 39.65431927 -59.6875 40.5 C-60.43386719 40.9021875 -61.18023437 41.304375 -61.94921875 41.71875 C-64.02108734 42.90564863 -64.02108734 42.90564863 -65.52734375 44.53125 C-67.19518547 46.19466774 -68.74675268 47.00626584 -70.875 48 C-76.8421232 50.48308556 -76.8421232 50.48308556 -81 55 C-83.0625 55.625 -83.0625 55.625 -85 56 C-85.495 54.515 -85.495 54.515 -86 53 C-84.84951172 52.35998047 -84.84951172 52.35998047 -83.67578125 51.70703125 C-69.03194325 43.45817942 -54.80878716 34.52563552 -40.75268555 25.31640625 C-33.23549481 20.43371613 -25.5268939 15.86879272 -17.81542969 11.30126953 C-11.75474109 7.70134793 -5.81576716 3.98457153 0 0 Z " fill="#83B519" transform="translate(248,437)"/>
<path d="M0 0 C9.9 0 19.8 0 30 0 C30 8.58 30 17.16 30 26 C4.92 26 -20.16 26 -46 26 C-46 28.31 -46 30.62 -46 33 C-46.33 33 -46.66 33 -47 33 C-47 30.36 -47 27.72 -47 25 C-42.94606301 24.03136709 -39.16926957 23.87897429 -35.0065918 23.88647461 C-33.98137169 23.88625557 -33.98137169 23.88625557 -32.93544006 23.8860321 C-30.68999999 23.88672538 -28.44464423 23.89449026 -26.19921875 23.90234375 C-24.63694809 23.90421001 -23.07467685 23.90563293 -21.5124054 23.90663147 C-17.41069916 23.91044028 -13.30902861 23.92025654 -9.20733643 23.93133545 C-5.01778649 23.9415848 -0.82823075 23.94613663 3.36132812 23.95117188 C11.57423691 23.96188033 19.7871099 23.97946383 28 24 C28.33 16.41 28.66 8.82 29 1 C19.43 1 9.86 1 0 1 C0 0.67 0 0.34 0 0 Z " fill="#90B700" transform="translate(738,483)"/>
<path d="M0 0 C0.99 0 1.98 0 3 0 C3.495 1.485 3.495 1.485 4 3 C2.28645833 4.04036458 0.57291667 5.08072917 -1.140625 6.12109375 C-2.26122314 6.80147705 -3.38182129 7.48186035 -4.53637695 8.18286133 C-7.03481728 9.69978193 -9.53336417 11.2165268 -12.03198242 12.7331543 C-17.99435711 16.35242726 -23.95623675 19.97249938 -29.91500854 23.59770203 C-32.44082028 25.13429167 -34.96703943 26.67021081 -37.49328613 28.20608521 C-38.69604497 28.93758258 -39.89860383 29.66940887 -41.10095215 30.40158081 C-43.81822903 32.05620122 -46.53802234 33.70619862 -49.26416016 35.34619141 C-50.92002541 36.34715796 -52.56810712 37.3613852 -54.20068359 38.39990234 C-58.39319383 41.00119215 -58.39319383 41.00119215 -60.98828125 40.99609375 C-64.1145866 39.44811731 -67.16877139 37.80823353 -70.1875 36.0625 C-70.82880859 35.70220703 -71.47011719 35.34191406 -72.13085938 34.97070312 C-76.87467617 32.25064767 -76.87467617 32.25064767 -78 30 C-74.15260767 31.08516194 -71.01025567 32.55395104 -67.625 34.625 C-63.14358068 37.21950592 -60.11219497 37.464745 -55 37 C-54.67 36.34 -54.34 35.68 -54 35 C-50.98052179 32.29288161 -50.27234217 32 -46 32 C-44.79371992 29.66785852 -43.8345262 27.50357861 -43 25 C-42.34 25 -41.68 25 -41 25 C-41 25.66 -41 26.32 -41 27 C-39.35 26.67 -37.7 26.34 -36 26 C-36 25.34 -36 24.68 -36 24 C-35.01 24 -34.02 24 -33 24 C-33 23.34 -33 22.68 -33 22 C-32.44570313 21.73445312 -31.89140625 21.46890625 -31.3203125 21.1953125 C-30.59585938 20.84210937 -29.87140625 20.48890625 -29.125 20.125 C-28.40570313 19.77695312 -27.68640625 19.42890625 -26.9453125 19.0703125 C-24.84864981 18.03442457 -24.84864981 18.03442457 -23 16 C-21.35008418 15.29289322 -19.68437744 14.62056011 -18 14 C-18 13.34 -18 12.68 -18 12 C-17.33613281 11.67386719 -16.67226563 11.34773437 -15.98828125 11.01171875 C-10.4110217 8.25338463 -10.4110217 8.25338463 -5 5.1875 C-3 4 -3 4 -1 4 C-0.67 2.68 -0.34 1.36 0 0 Z " fill="#095B85" transform="translate(340,544)"/>
<path d="M0 0 C1.44632813 0.74056641 1.44632813 0.74056641 2.921875 1.49609375 C4.19780852 2.14344237 5.47385621 2.79056599 6.75 3.4375 C7.38421875 3.76298828 8.0184375 4.08847656 8.671875 4.42382812 C11.18944982 5.6957279 13.56136318 6.89163963 16.30859375 7.5703125 C18 8 18 8 20.3125 10.4375 C23.46282465 13.44129792 25.86084053 13.87113833 30 15 C31.37310707 16.29233607 32.71034824 17.62437146 34 19 C34.86625 19.33 35.7325 19.66 36.625 20 C39.54425707 21.22916087 39.67058308 22.25253837 41 25 C42.32148827 25.37756808 43.65835921 25.7018576 45 26 C47.01254782 27.31431695 49.01310269 28.64721885 51 30 C51.99 30.33 52.98 30.66 54 31 C54 31.66 54 32.32 54 33 C54.71929687 33.25652344 55.43859375 33.51304687 56.1796875 33.77734375 C59.16413148 35.07115395 61.50443437 36.64315606 64.125 38.5625 C66.83500053 40.54351862 68.8038487 41.93461623 72 43 C72 43.66 72 44.32 72 45 C74.31 45.66 76.62 46.32 79 47 C79 47.66 79 48.32 79 49 C79.763125 49.268125 80.52625 49.53625 81.3125 49.8125 C83.87380884 50.94424112 85.19692938 51.91223401 87 54 C86.01 54.495 86.01 54.495 85 55 C82.51865261 53.57673659 80.18125377 52.09538797 77.8125 50.5 C77.06202393 50.00516113 76.31154785 49.51032227 75.53833008 49.00048828 C73.02105569 47.34035949 70.51056442 45.67025543 68 44 C55.67540774 35.83755897 43.26703021 27.84840235 30.625 20.1875 C30.03121552 19.82757965 29.43743103 19.4676593 28.82565308 19.09683228 C23.06042913 15.60711285 17.28014741 12.14586502 11.4453125 8.7734375 C10.63884277 8.30655518 9.83237305 7.83967285 9.00146484 7.35864258 C7.54514267 6.52025455 6.08475964 5.68886454 4.61962891 4.8659668 C3.04751574 3.96467892 1.51739504 2.99064219 0 2 C0 1.34 0 0.68 0 0 Z " fill="#095C8A" transform="translate(175,585)"/>
<path d="M0 0 C0.33 0 0.66 0 1 0 C1.91568835 27.67278388 2.12454214 55.31332537 2 83 C5.40799027 84.45477771 5.40799027 84.45477771 9 85.25 C12.32050284 86.49518856 13.87374798 89.22405987 16 92 C13.625 91.375 13.625 91.375 10 90 C9.17263336 89.74253998 8.34526672 89.48507996 7.49282837 89.21981812 C4.24015636 87.84857204 2.34872957 86.66319995 0 84 C-1.4630631 77.69389656 -1.16421772 71.47745856 -0.9765625 65.0390625 C-0.9579003 63.16437557 -0.94367084 61.2896397 -0.9336853 59.41488647 C-0.89558668 54.49147777 -0.79743928 49.57104152 -0.68664551 44.64880371 C-0.5841602 39.62174698 -0.53863699 34.59420757 -0.48828125 29.56640625 C-0.38118278 19.70963473 -0.21062117 9.85506495 0 0 Z " fill="#096958" transform="translate(158,493)"/>
<path d="M0 0 C0.33 0 0.66 0 1 0 C1 15.18 1 30.36 1 46 C2.65 46.66 4.3 47.32 6 48 C7.51064443 48.82514609 9.0029142 49.68468327 10.4765625 50.57421875 C11.72324707 51.32396973 11.72324707 51.32396973 12.99511719 52.08886719 C13.86297852 52.61641602 14.73083984 53.14396484 15.625 53.6875 C16.51348633 54.22407227 17.40197266 54.76064453 18.31738281 55.31347656 C24.60253445 59.12036468 30.84251265 62.98915961 37 67 C35.19140625 67.6171875 35.19140625 67.6171875 33 68 C29.9375 66.125 29.9375 66.125 27 64 C25.515 63.505 25.515 63.505 24 63 C22.86498047 62.09121094 22.86498047 62.09121094 21.70703125 61.1640625 C17.90041206 58.12096433 13.70564108 55.93749531 9.44921875 53.5859375 C8.23685547 52.80089844 8.23685547 52.80089844 7 52 C7 51.34 7 50.68 7 50 C6.4225 49.9175 5.845 49.835 5.25 49.75 C2.22243442 48.74081147 0.9999391 47.4907217 -1 45 C-1.64453125 41.79296875 -1.64453125 41.79296875 -1.8125 38.1875 C-1.88082031 37.00542969 -1.94914063 35.82335937 -2.01953125 34.60546875 C-1.99976607 30.9568172 -1.51581835 27.61072845 -1 24 C-0.73805544 19.85694032 -0.58768072 15.71093455 -0.4375 11.5625 C-0.39431641 10.44939453 -0.35113281 9.33628906 -0.30664062 8.18945312 C-0.20120112 5.45974156 -0.09907971 2.72994857 0 0 Z " fill="#075C85" transform="translate(192,512)"/>
<path d="M0 0 C3.65316671 1.24976756 4.78065836 1.67098753 7 5 C5.27278316 6.27348212 3.54313762 7.54367057 1.8125 8.8125 C0.36810547 9.87404297 0.36810547 9.87404297 -1.10546875 10.95703125 C-3.67877778 12.77328041 -6.29193211 14.39660008 -9 16 C-9.70125 16.556875 -10.4025 17.11375 -11.125 17.6875 C-13 19 -13 19 -16 19 C-16.33 19.66 -16.66 20.32 -17 21 C-18.99107248 22.01765927 -20.99218823 23.01577854 -23 24 C-24.34789347 24.98028616 -25.68212715 25.97971135 -27 27 C-29.5 28.5 -29.5 28.5 -32 30 C-32.70125 30.5775 -33.4025 31.155 -34.125 31.75 C-34.74375 32.1625 -35.3625 32.575 -36 33 C-36.99 32.67 -37.98 32.34 -39 32 C-34.68229017 28.34721748 -30.0408627 25.4141775 -25.25 22.4375 C-20.15537167 19.25304728 -15.06897126 16.06159806 -10.04296875 12.76953125 C-9.26727539 12.26172119 -8.49158203 11.75391113 -7.69238281 11.23071289 C-6.21148699 10.25825369 -4.73288917 9.28228419 -3.25683594 8.30249023 C1.78100618 5 1.78100618 5 4 5 C2.68 3.35 1.36 1.7 0 0 Z " fill="#5EA52A" transform="translate(293,467)"/>
<path d="M0 0 C1.90698242 0.99975586 1.90698242 0.99975586 3.85546875 2.21484375 C4.55994141 2.65376953 5.26441406 3.09269531 5.99023438 3.54492188 C6.71533203 4.00447266 7.44042969 4.46402344 8.1875 4.9375 C8.92419922 5.39318359 9.66089844 5.84886719 10.41992188 6.31835938 C15.87206573 9.74413146 15.87206573 9.74413146 17 12 C12.50202887 10.31326082 8.27113698 8.18326108 4 6 C4 5.34 4 4.68 4 4 C-2.3297057 2.50388774 -5.44712237 3.18658071 -10.96484375 6.59375 C-13.40677624 8.28107379 -15.68929062 10.13859522 -18 12 C-18.78375 12.309375 -19.5675 12.61875 -20.375 12.9375 C-24.03676439 14.41964273 -26.8345093 16.64139909 -30 19 C-30.66 18.34 -31.32 17.68 -32 17 C-30.35064453 15.93072266 -30.35064453 15.93072266 -28.66796875 14.83984375 C-27.95664795 14.37868164 -27.24532715 13.91751953 -26.51245117 13.44238281 C-24.95775944 12.4360697 -23.40192378 11.43152178 -21.8449707 10.42871094 C-18.39665548 8.20714149 -14.95425071 5.98303196 -11.5625 3.67578125 C-10.61375 3.04027344 -9.665 2.40476562 -8.6875 1.75 C-7.86636719 1.18796875 -7.04523438 0.6259375 -6.19921875 0.046875 C-3.49894771 -1.23851157 -2.77683055 -0.92915535 0 0 Z " fill="#82B40E" transform="translate(281,420)"/>
<path d="M0 0 C1.1482685 2.296537 1.11561175 3.58313167 1.09765625 6.1328125 C1.09282227 7.34130859 1.09282227 7.34130859 1.08789062 8.57421875 C1.07951172 9.41597656 1.07113281 10.25773438 1.0625 11.125 C1.05798828 11.97449219 1.05347656 12.82398438 1.04882812 13.69921875 C1.03702874 15.79950909 1.01909306 17.8997633 1 20 C1.66 20.33 2.32 20.66 3 21 C3.33 21.99 3.66 22.98 4 24 C5.98320018 25.03291676 7.98347806 26.0337499 10 27 C10.33 27.66 10.66 28.32 11 29 C13.31 29 15.62 29 18 29 C18 29.66 18 30.32 18 31 C18.99 31.66 19.98 32.32 21 33 C21.99 33.66 22.98 34.32 24 35 C24 35.66 24 36.32 24 37 C14.94366524 34.29212582 4.27190769 30.35168666 -2 23 C-4.3959856 15.92637973 -3.25404721 8.22717055 -2 1 C-1.34 0.67 -0.68 0.34 0 0 Z " fill="#0E6B79" transform="translate(215,523)"/>
<path d="M0 0 C0.33 0 0.66 0 1 0 C1.19816984 6.15622231 1.34311871 12.31057893 1.43945312 18.46923828 C1.47961792 20.56266627 1.53416361 22.65587076 1.60351562 24.74853516 C1.70088225 27.76260487 1.74599402 30.77370408 1.78125 33.7890625 C1.82254028 34.72054108 1.86383057 35.65201965 1.90637207 36.61172485 C1.91075572 42.99921246 1.91075572 42.99921246 -0.69360352 45.86102295 C-2.7322044 47.40037584 -4.80130312 48.70305334 -7 50 C-7.66414917 50.54757965 -8.32829834 51.0951593 -9.01257324 51.65933228 C-11 53 -11 53 -15 53 C-15.33 53.99 -15.66 54.98 -16 56 C-18.97 56.495 -18.97 56.495 -22 57 C-17.9403277 52.4075623 -12.80086534 49.69705369 -7.58007812 46.62304688 C-6.87947266 46.19958984 -6.17886719 45.77613281 -5.45703125 45.33984375 C-4.4976062 44.77317993 -4.4976062 44.77317993 -3.51879883 44.19506836 C-1.68765958 42.97965913 -1.68765958 42.97965913 -1 40 C-0.88764839 38.66548737 -0.82424351 37.32645611 -0.79467773 35.98754883 C-0.77473251 35.18694534 -0.75478729 34.38634186 -0.73423767 33.56147766 C-0.71752518 32.70201035 -0.70081268 31.84254303 -0.68359375 30.95703125 C-0.66281265 30.0734343 -0.64203156 29.18983734 -0.62062073 28.27946472 C-0.55524246 25.45722215 -0.49629472 22.63488665 -0.4375 19.8125 C-0.39430363 17.89907894 -0.35068898 15.98566727 -0.30664062 14.07226562 C-0.19957305 9.38160563 -0.09827248 4.69085217 0 0 Z " fill="#48991D" transform="translate(365,449)"/>
<path d="M0 0 C0.66 0 1.32 0 2 0 C2 8.91 2 17.82 2 27 C-9.88 26.67 -21.76 26.34 -34 26 C-34 25.67 -34 25.34 -34 25 C-22.78 25 -11.56 25 0 25 C0 16.75 0 8.5 0 0 Z " fill="#9CBF1E" transform="translate(654,523)"/>
<path d="M0 0 C4.32683135 3.70871258 5.15589851 6.31179702 8 12 C-3.55 12 -15.1 12 -27 12 C-27.33 10.68 -27.66 9.36 -28 8 C-26.68 8 -25.36 8 -24 8 C-24 8.66 -24 9.32 -24 10 C-14.76 9.67 -5.52 9.34 4 9 C2.02 5.535 2.02 5.535 0 2 C0 1.34 0 0.68 0 0 Z " fill="#91B706" transform="translate(1053,538)"/>
<path d="M0 0 C0.33 0 0.66 0 1 0 C1.27802157 5.1175193 1.52956888 10.23445518 1.734375 15.35546875 C1.87371976 18.75171174 2.09129828 22.10891247 2.453125 25.48828125 C2.74248747 29.27664521 2.91227013 32.30859766 2 36 C-1.23749909 39.35956873 -4.66406203 41.32682274 -9 43 C-9.66 43 -10.32 43 -11 43 C-11 42.34 -11 41.68 -11 41 C-10.34 41 -9.68 41 -9 41 C-9 40.34 -9 39.68 -9 39 C-7.68 39 -6.36 39 -5 39 C-5 38.34 -5 37.68 -5 37 C-3.68 36.34 -2.36 35.68 -1 35 C-1.01160156 33.8140625 -1.02320313 32.628125 -1.03515625 31.40625 C-1.10502901 20.88712404 -0.81024407 10.48976702 0 0 Z " fill="#03577C" transform="translate(397,540)"/>
<path d="M0 0 C0.33 0.66 0.66 1.32 1 2 C0.34 2 -0.32 2 -1 2 C-1 2.66 -1 3.32 -1 4 C-1.928125 4.433125 -2.85625 4.86625 -3.8125 5.3125 C-6.88432503 6.73355849 -6.88432503 6.73355849 -8.45703125 8.48046875 C-10.16182186 10.1593638 -11.71393172 10.99094088 -13.875 12 C-19.8421232 14.48308556 -19.8421232 14.48308556 -24 19 C-26.0625 19.625 -26.0625 19.625 -28 20 C-28.33 19.01 -28.66 18.02 -29 17 C-28.16339844 16.52691406 -27.32679688 16.05382812 -26.46484375 15.56640625 C-17.55974175 10.51320651 -8.76007414 5.30021293 0 0 Z " fill="#529F2F" transform="translate(191,473)"/>
<path d="M0 0 C0.99 0 1.98 0 3 0 C3.33 0.99 3.66 1.98 4 3 C0.48243291 5.16480261 -3.04134357 7.31906027 -6.57128906 9.46362305 C-7.77195055 10.19510347 -8.97085613 10.92947403 -10.16796875 11.66674805 C-11.88601042 12.72416856 -13.61088183 13.77046732 -15.3359375 14.81640625 C-16.89127197 15.76688843 -16.89127197 15.76688843 -18.47802734 16.73657227 C-19.31027832 17.15350342 -20.1425293 17.57043457 -21 18 C-21.66 17.67 -22.32 17.34 -23 17 C-21.625 15.5 -21.625 15.5 -20 14 C-19.34 14 -18.68 14 -18 14 C-18 13.34 -18 12.68 -18 12 C-17.33613281 11.67386719 -16.67226563 11.34773437 -15.98828125 11.01171875 C-10.4110217 8.25338463 -10.4110217 8.25338463 -5 5.1875 C-3 4 -3 4 -1 4 C-0.67 2.68 -0.34 1.36 0 0 Z " fill="#09677A" transform="translate(340,544)"/>
<path d="M0 0 C4.455 0.99 4.455 0.99 9 2 C9 2.66 9 3.32 9 4 C11.475 4.495 11.475 4.495 14 5 C14 5.66 14 6.32 14 7 C14.78375 7.12375 15.5675 7.2475 16.375 7.375 C19 8 19 8 21 10 C20.01 10.33 19.02 10.66 18 11 C15.18827375 9.36415399 12.55913879 7.6039803 9.9140625 5.71679688 C8.03138936 4.40638553 8.03138936 4.40638553 5 3 C1.67003777 3.76222311 -0.12773626 5.08968716 -2.9375 7.0625 C-6.10664532 9.06746949 -8.30589675 9.64818064 -12 10 C-9.27161002 6.97989537 -6.41760335 5.67806741 -2.7421875 4.0625 C-0.65758182 3.04823002 -0.65758182 3.04823002 0 0 Z " fill="#6FAD1D" transform="translate(274,457)"/>
<path d="M0 0 C0.33 0 0.66 0 1 0 C1 14.52 1 29.04 1 44 C0.01 44.495 0.01 44.495 -1 45 C-1.19713238 42.813347 -1.38224908 40.62560925 -1.5625 38.4375 C-1.66691406 37.21933594 -1.77132812 36.00117187 -1.87890625 34.74609375 C-2.00052958 30.98361722 -1.54887201 27.7201325 -1 24 C-0.73652507 19.85704654 -0.58768024 15.71092142 -0.4375 11.5625 C-0.39431641 10.44939453 -0.35113281 9.33628906 -0.30664062 8.18945312 C-0.20120112 5.45974156 -0.09907971 2.72994857 0 0 Z " fill="#026955" transform="translate(192,512)"/>
<path d="M0 0 C0.33 0 0.66 0 1 0 C1.06188229 4.0017215 1.03775359 7.99811977 1 12 C1.0309375 12.928125 1.061875 13.85625 1.09375 14.8125 C1.04497644 18.81193216 0.9429378 21.07916231 -2 23.953125 C-7.90011682 28 -7.90011682 28 -11 28 C-11 27.34 -11 26.68 -11 26 C-10.34 26 -9.68 26 -9 26 C-9 25.34 -9 24.68 -9 24 C-5.53846154 21 -5.53846154 21 -3 21 C-2.93941406 20.36191406 -2.87882812 19.72382813 -2.81640625 19.06640625 C-2.73261719 18.24011719 -2.64882813 17.41382813 -2.5625 16.5625 C-2.48128906 15.73878906 -2.40007812 14.91507812 -2.31640625 14.06640625 C-2 12 -2 12 -1 11 C-0.76636119 9.15108054 -0.58696365 7.29511969 -0.4375 5.4375 C-0.35371094 4.42558594 -0.26992188 3.41367187 -0.18359375 2.37109375 C-0.12300781 1.58863281 -0.06242187 0.80617188 0 0 Z " fill="#509E23" transform="translate(343,459)"/>
<path d="M0 0 C11.85964342 4.59642487 11.85964342 4.59642487 16 9 C16.95380414 13.79522412 16.66225581 18.17690462 16 23 C13.86413322 19.79619983 13.76867825 18.98060033 13.875 15.3125 C13.89304687 14.50425781 13.91109375 13.69601562 13.9296875 12.86328125 C13.95289063 12.24839844 13.97609375 11.63351562 14 11 C13.34 11 12.68 11 12 11 C11.34 10.01 10.68 9.02 10 8 C8.05167065 6.99831469 8.05167065 6.99831469 5.875 6.3125 C5.15054687 6.06113281 4.42609375 5.80976563 3.6796875 5.55078125 C3.12539063 5.36902344 2.57109375 5.18726563 2 5 C2 4.01 2 3.02 2 2 C1.34 2 0.68 2 0 2 C0 1.34 0 0.68 0 0 Z " fill="#85B610" transform="translate(382,417)"/>
<path d="M0 0 C0.66 0.99 1.32 1.98 2 3 C-1.23765348 5.04114876 -4.49187439 7.0542201 -7.75 9.0625 C-8.67039062 9.64322266 -9.59078125 10.22394531 -10.5390625 10.82226562 C-11.42851562 11.36689453 -12.31796875 11.91152344 -13.234375 12.47265625 C-14.05131836 12.98062744 -14.86826172 13.48859863 -15.70996094 14.01196289 C-18.33303213 15.14368668 -19.38085646 15.01241994 -22 14 C-19.25 10.125 -19.25 10.125 -17 9 C-17 9.66 -17 10.32 -17 11 C-15.35 10.67 -13.7 10.34 -12 10 C-12 9.34 -12 8.68 -12 8 C-11.01 8 -10.02 8 -9 8 C-9 7.34 -9 6.68 -9 6 C-8.43410156 5.73445312 -7.86820312 5.46890625 -7.28515625 5.1953125 C-6.55167969 4.84210937 -5.81820313 4.48890625 -5.0625 4.125 C-4.33160156 3.77695312 -3.60070312 3.42890625 -2.84765625 3.0703125 C-0.83667541 2.1315023 -0.83667541 2.1315023 0 0 Z " fill="#0C6589" transform="translate(316,560)"/>
<path d="M0 0 C1.1482685 2.296537 1.11561175 3.58313167 1.09765625 6.1328125 C1.09282227 7.34130859 1.09282227 7.34130859 1.08789062 8.57421875 C1.07951172 9.41597656 1.07113281 10.25773438 1.0625 11.125 C1.05798828 11.97449219 1.05347656 12.82398438 1.04882812 13.69921875 C1.03702874 15.79950909 1.01909306 17.8997633 1 20 C1.66 20.33 2.32 20.66 3 21 C3 21.66 3 22.32 3 23 C1.35 23 -0.3 23 -2 23 C-2 15.74 -2 8.48 -2 1 C-1.34 0.67 -0.68 0.34 0 0 Z " fill="#147D6B" transform="translate(215,523)"/>
<path d="M0 0 C0 1.32 0 2.64 0 4 C-0.61875 4.12375 -1.2375 4.2475 -1.875 4.375 C-4.19120832 4.87197356 -4.19120832 4.87197356 -6 7 C-6.66 7 -7.32 7 -8 7 C-8.33 7.66 -8.66 8.32 -9 9 C-10.84765625 9.6328125 -10.84765625 9.6328125 -13.0625 10.125 C-13.79597656 10.29257812 -14.52945312 10.46015625 -15.28515625 10.6328125 C-15.85105469 10.75398437 -16.41695313 10.87515625 -17 11 C-17 10.34 -17 9.68 -17 9 C-14.56866946 7.36136603 -12.15228465 5.85078666 -9.625 4.375 C-8.57699219 3.74464844 -8.57699219 3.74464844 -7.5078125 3.1015625 C-2.27140828 0 -2.27140828 0 0 0 Z " fill="#0A6E78" transform="translate(397,541)"/>
<path d="M0 0 C0 0.99 0 1.98 0 3 C-1.97508261 4.48131196 -3.88891394 5.73958364 -6 7 C-7.37650222 7.85174371 -8.7514694 8.70597249 -10.125 9.5625 C-10.80175781 9.97886719 -11.47851562 10.39523437 -12.17578125 10.82421875 C-14.13609645 12.04100292 -14.13609645 12.04100292 -16.3125 13.875 C-17.1478125 14.431875 -17.1478125 14.431875 -18 15 C-18.99 14.67 -19.98 14.34 -21 14 C-16.81185728 10.46444757 -12.3432106 7.61249231 -7.6875 4.75 C-6.94693359 4.29109375 -6.20636719 3.8321875 -5.44335938 3.359375 C-3.6306939 2.23669187 -1.81559216 1.11794394 0 0 Z " fill="#439833" transform="translate(275,485)"/>
<path d="M0 0 C0 0.99 0 1.98 0 3 C-4.60878912 7.59833835 -9.91581376 10.79933689 -16 13 C-16 12.01 -16 11.02 -16 10 C-14.53125 8.74145508 -14.53125 8.74145508 -12.5 7.51953125 C-11.778125 7.07802734 -11.05625 6.63652344 -10.3125 6.18164062 C-9.549375 5.72982422 -8.78625 5.27800781 -8 4.8125 C-6.8553125 4.11737305 -6.8553125 4.11737305 -5.6875 3.40820312 C-3.79731897 2.26228088 -1.90158864 1.12685563 0 0 Z M-18 13 C-16 14 -16 14 -16 14 Z " fill="#6BAA1E" transform="translate(208,462)"/>
<path d="M0 0 C3.45113008 0.62890753 5.70910123 1.99151626 8.5625 4 C11.12875248 5.80027155 13.00530589 7.00176863 16 8 C16 8.66 16 9.32 16 10 C16.61875 10.103125 17.2375 10.20625 17.875 10.3125 C20 11 20 11 22 14 C16.60643326 12.50273226 12.30771875 9.96374604 7.625 7 C6.88894531 6.54882812 6.15289062 6.09765625 5.39453125 5.6328125 C4.69972656 5.19710937 4.00492188 4.76140625 3.2890625 4.3125 C2.65693848 3.91675781 2.02481445 3.52101563 1.37353516 3.11328125 C0.92026855 2.74589844 0.46700195 2.37851562 0 2 C0 1.34 0 0.68 0 0 Z " fill="#096084" transform="translate(240,560)"/>
<path d="M0 0 C0.66 0.33 1.32 0.66 2 1 C0.91460937 1.67546875 -0.17078125 2.3509375 -1.2890625 3.046875 C-2.73440537 3.94786796 -4.17971616 4.84891236 -5.625 5.75 C-6.33785156 6.1934375 -7.05070312 6.636875 -7.78515625 7.09375 C-8.48769531 7.53203125 -9.19023437 7.9703125 -9.9140625 8.421875 C-10.60790039 8.85435547 -11.30173828 9.28683594 -12.01660156 9.73242188 C-13.82460187 10.8879041 -15.57956009 12.09637981 -17.3359375 13.328125 C-20 15 -20 15 -23 15 C-22.67 14.01 -22.34 13.02 -22 12 C-20.68 12 -19.36 12 -18 12 C-18 11.34 -18 10.68 -18 10 C-16.35 9.67 -14.7 9.34 -13 9 C-12.67 8.01 -12.34 7.02 -12 6 C-10.30031022 5.2155278 -8.59403561 4.43979198 -6.84765625 3.765625 C-4.77299027 2.96475697 -4.77299027 2.96475697 -2.1875 1.25 C-1.465625 0.8375 -0.74375 0.425 0 0 Z " fill="#117265" transform="translate(367,531)"/>
<path d="M0 0 C3.69876091 1.37287342 6.9514476 3.06355453 10.3125 5.125 C11.19550781 5.66382813 12.07851563 6.20265625 12.98828125 6.7578125 C13.65214844 7.16773438 14.31601562 7.57765625 15 8 C14.67 8.99 14.34 9.98 14 11 C13.01 10.67 12.02 10.34 11 10 C11 9.34 11 8.68 11 8 C10.05125 7.7525 9.1025 7.505 8.125 7.25 C5 6 5 6 3.8125 3.9375 C3.544375 3.298125 3.27625 2.65875 3 2 C2.01 1.67 1.02 1.34 0 1 C0 0.67 0 0.34 0 0 Z " fill="#7CB31E" transform="translate(328,450)"/>
<path d="M0 0 C-2.42941953 1.70029485 -4.86728412 3.38520316 -7.3125 5.0625 C-8.00279297 5.54783203 -8.69308594 6.03316406 -9.40429688 6.53320312 C-10.40493164 7.21479492 -10.40493164 7.21479492 -11.42578125 7.91015625 C-12.03848877 8.33433838 -12.65119629 8.75852051 -13.2824707 9.19555664 C-15 10 -15 10 -18 9 C-16.35 8.34 -14.7 7.68 -13 7 C-13 6.34 -13 5.68 -13 5 C-12.01 5 -11.02 5 -10 5 C-10 4.34 -10 3.68 -10 3 C-8.68 2.67 -7.36 2.34 -6 2 C-6 1.34 -6 0.68 -6 0 C-2.25 -1.125 -2.25 -1.125 0 0 Z " fill="#36913C" transform="translate(217,498)"/>
<path d="M0 0 C0.66 0.33 1.32 0.66 2 1 C1.01 2.485 1.01 2.485 0 4 C-0.99 4 -1.98 4 -3 4 C-3.20625 4.639375 -3.4125 5.27875 -3.625 5.9375 C-5 8 -5 8 -8.125 8.75 C-9.548125 8.87375 -9.548125 8.87375 -11 9 C-11 8.34 -11 7.68 -11 7 C-8.6640625 5.23828125 -8.6640625 5.23828125 -5.625 3.3125 C-4.62726563 2.66925781 -3.62953125 2.02601563 -2.6015625 1.36328125 C-1.74304688 0.91339844 -0.88453125 0.46351563 0 0 Z " fill="#147766" transform="translate(298,533)"/>
<path d="M0 0 C0.66 1.32 1.32 2.64 2 4 C1.67 4.33 1.34 4.66 1 5 C4.63 5.33 8.26 5.66 12 6 C12 6.33 12 6.66 12 7 C6.72 7 1.44 7 -4 7 C-2 2 -2 2 0 0 Z " fill="#A9C733" transform="translate(909,543)"/>
<path d="M0 0 C0.66 0.66 1.32 1.32 2 2 C-0.55289511 4.97837763 -3.51370822 6.29394232 -7 8 C-7.66 8.66 -8.32 9.32 -9 10 C-9 9.34 -9 8.68 -9 8 C-9.66 7.67 -10.32 7.34 -11 7 C-7.37 4.69 -3.74 2.38 0 0 Z " fill="#116691" transform="translate(305,595)"/>
<path d="M0 0 C7.58190415 1.33798309 11.41935572 2.80265773 16 9 C10.0942118 7.44584521 5.02261107 4.40465533 0 1 C0 0.67 0 0.34 0 0 Z " fill="#075987" transform="translate(158,576)"/>
<path d="M0 0 C0.33 0.66 0.66 1.32 1 2 C2.6630584 2.67561748 4.33094605 3.33933281 6 4 C9.03227254 5.61010117 12.01843756 7.29810597 15 9 C11.25 10.125 11.25 10.125 9 9 C9 8.34 9 7.68 9 7 C6.69 6.34 4.38 5.68 2 5 C2 4.34 2 3.68 2 3 C1.34 3 0.68 3 0 3 C0 2.01 0 1.02 0 0 Z " fill="#0F7064" transform="translate(257,533)"/>
<path d="M0 0 C1.8125 0.8125 1.8125 0.8125 3.8125 2.8125 C3.20921875 2.93367188 2.6059375 3.05484375 1.984375 3.1796875 C1.18515625 3.34726562 0.3859375 3.51484375 -0.4375 3.6875 C-1.62085938 3.93113281 -1.62085938 3.93113281 -2.828125 4.1796875 C-5.15581144 4.80400075 -7.07781952 5.66088542 -9.1875 6.8125 C-7.59744768 2.62054388 -4.74981695 -0.40712717 0 0 Z " fill="#8CB817" transform="translate(279.1875,419.1875)"/>
<path d="M0 0 C0.66 0.33 1.32 0.66 2 1 C-1.44831702 5.05684355 -6.72717898 8.15634864 -12 9 C-12 8.34 -12 7.68 -12 7 C-9.4453125 5.23828125 -9.4453125 5.23828125 -6.125 3.3125 C-5.03445312 2.66925781 -3.94390625 2.02601563 -2.8203125 1.36328125 C-1.88960937 0.91339844 -0.95890625 0.46351563 0 0 Z " fill="#75AF19" transform="translate(221,454)"/>
<path d="M0 0 C0 0.66 0 1.32 0 2 C-0.99 2 -1.98 2 -3 2 C-3 2.66 -3 3.32 -3 4 C-4.45736087 4.19491452 -5.91594593 4.38069358 -7.375 4.5625 C-8.18710937 4.66691406 -8.99921875 4.77132812 -9.8359375 4.87890625 C-12 5 -12 5 -14 4 C-14 3.01 -14 2.02 -14 1 C-12.4221875 1.5878125 -12.4221875 1.5878125 -10.8125 2.1875 C-7.07335776 3.39410332 -7.07335776 3.39410332 -4.1875 1.625 C-2 0 -2 0 0 0 Z " fill="#0A6B67" transform="translate(286,542)"/>
<path d="M0 0 C0.8971875 0.309375 0.8971875 0.309375 1.8125 0.625 C0.38089732 1.63342453 -1.05801453 2.63147891 -2.5 3.625 C-3.70076172 4.4603125 -3.70076172 4.4603125 -4.92578125 5.3125 C-7.1875 6.625 -7.1875 6.625 -10.1875 6.625 C-9.1875 3.625 -9.1875 3.625 -7.3125 2.5625 C-6.61125 2.253125 -5.91 1.94375 -5.1875 1.625 C-2.1875 -0.375 -2.1875 -0.375 0 0 Z " fill="#52A130" transform="translate(242.1875,480.375)"/>
<path d="M0 0 C0.33 0.66 0.66 1.32 1 2 C0.34 2 -0.32 2 -1 2 C-1 2.66 -1 3.32 -1 4 C-1.99 4 -2.98 4 -4 4 C-4.33 4.99 -4.66 5.98 -5 7 C-6.98 7.33 -8.96 7.66 -11 8 C-7.72291137 4.32966073 -4.28477792 2.30718811 0 0 Z " fill="#35913A" transform="translate(354,498)"/>
<path d="M0 0 C0.2475 0.639375 0.495 1.27875 0.75 1.9375 C1.784099 4.16351592 1.784099 4.16351592 3.875 4.5625 C4.57625 4.706875 5.2775 4.85125 6 5 C8.25 6.5625 8.25 6.5625 10 8 C9.67 8.66 9.34 9.32 9 10 C5.7 8.02 2.4 6.04 -1 4 C-0.67 2.68 -0.34 1.36 0 0 Z " fill="#136491" transform="translate(214,606)"/>
<path d="M0 0 C6.64615385 1.47692308 6.64615385 1.47692308 8.4375 4.125 C8.7159375 5.053125 8.7159375 5.053125 9 6 C5.59687262 4.94124926 2.98646769 3.99097846 0 2 C0 1.34 0 0.68 0 0 Z " fill="#07647F" transform="translate(230,554)"/>
<path d="M0 0 C0.66 0 1.32 0 2 0 C2.25 7.625 2.25 7.625 0 11 C-1.37432457 7.18243176 -0.67975039 3.92744671 0 0 Z " fill="#06716F" transform="translate(191,536)"/>
<path d="M0 0 C0 3 0 3 -1.3125 4.6875 C-3 6 -3 6 -6 6 C-6.33 6.66 -6.66 7.32 -7 8 C-7 6.68 -7 5.36 -7 4 C-4.69 2.68 -2.38 1.36 0 0 Z " fill="#54A12E" transform="translate(283,480)"/>
<path d="M0 0 C0.33 0.66 0.66 1.32 1 2 C0.34 2 -0.32 2 -1 2 C-1 2.66 -1 3.32 -1 4 C-3.8125 5.5625 -3.8125 5.5625 -7 7 C-7.99 6.67 -8.98 6.34 -10 6 C-6.7 4.02 -3.4 2.04 0 0 Z " fill="#58A11E" transform="translate(191,473)"/>
<path d="M0 0 C3.96 1.98 3.96 1.98 8 4 C7.67 4.66 7.34 5.32 7 6 C3.62496331 4.8141763 1.35277269 3.72426311 -1 1 C-0.67 0.67 -0.34 0.34 0 0 Z " fill="#0B628E" transform="translate(253,594)"/>
<path d="M0 0 C3.96 1.98 3.96 1.98 8 4 C8 4.99 8 5.98 8 7 C7.34 7 6.68 7 6 7 C6 6.34 6 5.68 6 5 C4.02 4.34 2.04 3.68 0 3 C0 2.01 0 1.02 0 0 Z " fill="#8AB91A" transform="translate(298,431)"/>
<path d="M0 0 C0.66 0 1.32 0 2 0 C0.125 6.75 0.125 6.75 -1 9 C-1.66 9 -2.32 9 -3 9 C-2.44271087 5.65626525 -1.64826111 2.96687001 0 0 Z " fill="#8EBB14" transform="translate(368,440)"/>
<path d="M0 0 C0.66 0.33 1.32 0.66 2 1 C0.71283353 2.00578589 -0.57988658 3.00446798 -1.875 4 C-2.95394531 4.8353125 -2.95394531 4.8353125 -4.0546875 5.6875 C-6 7 -6 7 -8 7 C-6.88424427 3.65273281 -6.48655378 3.37920252 -3.5625 1.75 C-2.386875 1.1725 -1.21125 0.595 0 0 Z " fill="#045482" transform="translate(334,615)"/>
<path d="M0 0 C-1.62366466 3.24732932 -4.75387839 3.70155136 -8 5 C-8 4.01 -8 3.02 -8 2 C-4.77208445 -0.1519437 -3.71599191 -0.20086443 0 0 Z M-10 5 C-8 6 -8 6 -8 6 Z " fill="#6AAB2E" transform="translate(200,470)"/>
<path d="M0 0 C0.99 0.66 1.98 1.32 3 2 C1.6875 3.5 1.6875 3.5 0 5 C-0.99 5 -1.98 5 -3 5 C-2.625 3.0625 -2.625 3.0625 -2 1 C-1.34 0.67 -0.68 0.34 0 0 Z " fill="#0B6990" transform="translate(346,570)"/>
<path d="M0 0 C0.33 0.66 0.66 1.32 1 2 C0.67 2.66 0.34 3.32 0 4 C-2.32156597 4.40729228 -4.6568787 4.74438677 -7 5 C-2.25 1.125 -2.25 1.125 0 0 Z " fill="#035B7F" transform="translate(362,561)"/>
<path d="M0 0 C3.37503669 1.1858237 5.64722731 2.27573689 8 5 C6.68 5 5.36 5 4 5 C3.67 4.01 3.34 3.02 3 2 C2.01 1.67 1.02 1.34 0 1 C0 0.67 0 0.34 0 0 Z " fill="#74AE11" transform="translate(328,450)"/>
</svg>
